<svg width="234" height="150" viewBox="0 0 234 150" fill="none" xmlns="http://www.w3.org/2000/svg">
<path d="M39.3889 91.6757V146.027C39.3889 148.171 41.1264 149.908 43.2697 149.908C45.4129 149.908 47.1504 148.171 47.1504 146.027V91.6757C47.1504 89.5442 48.8784 87.8162 51.01 87.8162C53.1415 87.8162 54.8695 89.5442 54.8695 91.6757V146.027C54.8695 148.171 56.607 149.908 58.7503 149.908C60.8936 149.908 62.631 148.171 62.631 146.027V91.6757C62.631 85.2576 57.4281 80.0547 51.01 80.0547C44.5918 80.0547 39.3889 85.2576 39.3889 91.6757Z" fill="white"/>
<path d="M23.8236 146.027V87.8162H8.30056V146.027C8.30056 148.171 6.56309 149.908 4.41981 149.908C2.27653 149.908 0.539062 148.171 0.539062 146.027V87.8162C0.539062 83.5296 4.014 80.0547 8.30056 80.0547H23.8236C28.1101 80.0547 31.5851 83.5296 31.5851 87.8162V88.3733V146.027C31.5851 148.171 29.8476 149.908 27.7043 149.908C25.561 149.908 23.8236 148.171 23.8236 146.027Z" fill="white"/>
<path d="M109.2 146.027V83.9354C109.2 81.7922 110.938 80.0547 113.081 80.0547C115.224 80.0547 116.962 81.7922 116.962 83.9354V95.5777H132.485V83.9354C132.485 81.7922 134.222 80.0547 136.365 80.0547C138.509 80.0547 140.246 81.7922 140.246 83.9354V95.5777C140.246 99.8643 136.771 103.339 132.485 103.339H116.962V111.101H140.246C144.533 111.101 148.008 114.576 148.008 118.862V146.027C148.008 148.171 146.27 149.908 144.127 149.908C141.984 149.908 140.246 148.171 140.246 146.027V118.862H116.962V146.027C116.962 148.171 115.224 149.908 113.081 149.908C110.938 149.908 109.2 148.171 109.2 146.027Z" fill="white"/>
<path fill-rule="evenodd" clip-rule="evenodd" d="M74.2733 149.908C72.13 149.908 70.3926 148.171 70.3926 146.027V87.8162C70.3926 83.5296 73.8675 80.0547 78.1541 80.0547H93.6771C97.9636 80.0547 101.439 83.5296 101.439 87.8162V146.027C101.439 148.171 99.7011 149.908 97.5578 149.908C95.4146 149.908 93.6771 148.171 93.6771 146.027V118.862H78.1541V146.027C78.1541 148.171 76.4166 149.908 74.2733 149.908ZM78.1541 111.101V87.8162H93.6771V111.101H78.1541Z" fill="white"/>
<path fill-rule="evenodd" clip-rule="evenodd" d="M159.65 149.908C157.507 149.908 155.769 148.171 155.769 146.027V87.8162C155.769 83.5296 159.244 80.0547 163.531 80.0547H179.054C183.34 80.0547 186.815 83.5296 186.815 87.8162V146.027C186.815 148.171 185.078 149.908 182.934 149.908C180.791 149.908 179.054 148.171 179.054 146.027V118.862H163.531V146.027C163.531 148.171 161.793 149.908 159.65 149.908ZM163.531 111.101V87.8162H179.054V111.101H163.531Z" fill="white"/>
<path fill-rule="evenodd" clip-rule="evenodd" d="M101.439 0C97.1519 0 93.677 3.47494 93.677 7.7615V62.092C93.677 66.3786 97.1519 69.8535 101.439 69.8535H116.962C121.248 69.8535 124.723 66.3786 124.723 62.092V38.9201C124.723 34.6335 121.248 31.1586 116.962 31.1586H101.439V7.7615H120.842C122.986 7.7615 124.723 6.02403 124.723 3.88075C124.723 1.73747 122.986 0 120.842 0H101.439ZM101.439 62.092V38.9201H116.962V62.092H101.439Z" fill="white"/>
<path fill-rule="evenodd" clip-rule="evenodd" d="M47.1079 7.7615V62.092C47.1079 66.3786 50.5829 69.8535 54.8694 69.8535H82.0347C84.1779 69.8535 85.9154 68.116 85.9154 65.9728C85.9154 63.8295 84.1779 62.092 82.0347 62.092H54.8694V31.046H78.1539C82.4405 31.046 85.9154 27.5711 85.9154 23.2845V7.7615C85.9154 3.47494 82.4405 0 78.1539 0H54.8694C50.5829 0 47.1079 3.47494 47.1079 7.7615ZM78.1539 7.7615H54.8694V23.2845H78.1539V7.7615Z" fill="white"/>
<path fill-rule="evenodd" clip-rule="evenodd" d="M0.539062 62.092V11.6423C0.539062 5.21241 5.75148 0 12.1813 0C18.6112 0 23.8236 5.21241 23.8236 11.6423V31.046H31.5851C35.8716 31.046 39.3466 34.521 39.3466 38.8075V62.092C39.3466 66.3786 35.8716 69.8535 31.5851 69.8535H8.30056C4.01401 69.8535 0.539062 66.3786 0.539062 62.092ZM12.1813 7.7615C10.038 7.7615 8.30056 9.49897 8.30056 11.6423V31.046H16.0621V11.6423C16.0621 9.49898 14.3246 7.7615 12.1813 7.7615ZM8.30056 62.092V38.8075H31.5851V62.092H8.30056Z" fill="white"/>
<path d="M167.411 38.8084H136.365C134.222 38.8084 132.485 37.0709 132.485 34.9276C132.485 32.7843 134.222 31.0469 136.365 31.0469H167.411C169.555 31.0469 171.292 32.7843 171.292 34.9276C171.292 37.0709 169.555 38.8084 167.411 38.8084Z" fill="white"/>
<path d="M210.1 87.7146H198.457C196.314 87.7146 194.577 85.9772 194.577 83.8339C194.577 81.6906 196.314 79.9531 198.457 79.9531H229.503C231.647 79.9531 233.384 81.6906 233.384 83.8339C233.384 85.9772 231.647 87.7146 229.503 87.7146H217.861V146.028C217.861 148.172 216.124 149.909 213.98 149.909C211.837 149.909 210.1 148.172 210.1 146.028V87.7146Z" fill="white"/>
</svg>
