<svg width="421" height="336" viewBox="0 0 421 336" fill="none" xmlns="http://www.w3.org/2000/svg">
<path d="M0.350952 252H203V152C203 129.909 220.909 112 243 112H247C269.092 112 287 129.909 287 152V294C287 301.732 293.268 308 301 308C308.732 308 315 301.732 315 294V28C315 12.536 327.536 0 343 0H420.717V28H343V296C343 318.091 325.092 336 303 336H299C276.909 336 259 318.091 259 296V154C259 146.268 252.732 140 245 140C237.268 140 231 146.268 231 154V252C231 267.464 218.464 280 203 280H0.350952V252Z" fill="black"/>
</svg>
