<svg width="580" height="393" viewBox="0 0 580 393" fill="none" xmlns="http://www.w3.org/2000/svg">
<path d="M579.731 28.4238H425.115V364.424C425.115 379.888 412.579 392.424 397.115 392.424H313.115C297.651 392.424 285.115 379.888 285.115 364.424V238.424C285.115 230.692 278.847 224.424 271.115 224.424C263.383 224.424 257.115 230.692 257.115 238.424V308.424C257.115 323.888 244.579 336.424 229.115 336.424H0.600836V308.424H229.115V238.424C229.115 215.228 247.919 196.424 271.115 196.424C294.311 196.424 313.115 215.228 313.115 238.424V364.424H397.115V28.4238C397.115 12.9599 409.651 0.423828 425.115 0.423828H579.731V28.4238Z" fill="black"/>
</svg>
