<svg width="340" height="322" viewBox="0 0 340 322" fill="none" xmlns="http://www.w3.org/2000/svg">
<path d="M39.1296 263.555V317.906C39.1296 320.05 40.8671 321.787 43.0104 321.787C45.1537 321.787 46.8911 320.05 46.8911 317.906V263.555C46.8911 261.423 48.6191 259.695 50.7507 259.695C52.8823 259.695 54.6103 261.423 54.6103 263.555V317.906C54.6103 320.05 56.3477 321.787 58.491 321.787C60.6343 321.787 62.3718 320.05 62.3718 317.906V263.555C62.3718 257.137 57.1688 251.934 50.7507 251.934C44.3326 251.934 39.1296 257.137 39.1296 263.555Z" fill="white"/>
<path d="M23.5643 317.906V259.695H8.04129V317.906C8.04129 320.05 6.30382 321.787 4.16054 321.787C2.01726 321.787 0.279785 320.05 0.279785 317.906V259.695C0.279785 255.409 3.75473 251.934 8.04129 251.934H23.5643C27.8509 251.934 31.3258 255.409 31.3258 259.695V260.252V317.906C31.3258 320.05 29.5883 321.787 27.445 321.787C25.3018 321.787 23.5643 320.05 23.5643 317.906Z" fill="white"/>
<path d="M108.941 317.906V255.814C108.941 253.671 110.678 251.934 112.822 251.934C114.965 251.934 116.702 253.671 116.702 255.814V267.457H132.225V255.814C132.225 253.671 133.963 251.934 136.106 251.934C138.249 251.934 139.987 253.671 139.987 255.814V267.457C139.987 271.743 136.512 275.218 132.225 275.218H116.702V282.98H139.987C144.273 282.98 147.748 286.455 147.748 290.741V317.906C147.748 320.05 146.011 321.787 143.868 321.787C141.724 321.787 139.987 320.05 139.987 317.906V290.741H116.702V317.906C116.702 320.05 114.965 321.787 112.822 321.787C110.678 321.787 108.941 320.05 108.941 317.906Z" fill="white"/>
<path fill-rule="evenodd" clip-rule="evenodd" d="M74.0141 321.787C71.8708 321.787 70.1333 320.05 70.1333 317.906V259.695C70.1333 255.409 73.6082 251.934 77.8948 251.934H93.4178C97.7044 251.934 101.179 255.409 101.179 259.695V317.906C101.179 320.05 99.4418 321.787 97.2986 321.787C95.1553 321.787 93.4178 320.05 93.4178 317.906V290.741H77.8948V317.906C77.8948 320.05 76.1573 321.787 74.0141 321.787ZM77.8948 282.98V259.695H93.4178V282.98H77.8948Z" fill="white"/>
<path fill-rule="evenodd" clip-rule="evenodd" d="M159.391 321.787C157.247 321.787 155.51 320.05 155.51 317.906V259.695C155.51 255.409 158.985 251.934 163.271 251.934H178.794C183.081 251.934 186.556 255.409 186.556 259.695V317.906C186.556 320.05 184.818 321.787 182.675 321.787C180.532 321.787 178.794 320.05 178.794 317.906V290.741H163.271V317.906C163.271 320.05 161.534 321.787 159.391 321.787ZM163.271 282.98V259.695H178.794V282.98H163.271Z" fill="white"/>
<path fill-rule="evenodd" clip-rule="evenodd" d="M101.179 171.879C96.8927 171.879 93.4177 175.354 93.4177 179.64V233.971C93.4177 238.257 96.8927 241.732 101.179 241.732H116.702C120.989 241.732 124.464 238.257 124.464 233.971V210.799C124.464 206.512 120.989 203.037 116.702 203.037H101.179V179.64H120.583C122.726 179.64 124.464 177.903 124.464 175.76C124.464 173.616 122.726 171.879 120.583 171.879H101.179ZM101.179 233.971V210.799H116.702V233.971H101.179Z" fill="white"/>
<path fill-rule="evenodd" clip-rule="evenodd" d="M46.8486 179.64V233.971C46.8486 238.257 50.3236 241.732 54.6101 241.732H81.7754C83.9187 241.732 85.6561 239.995 85.6561 237.852C85.6561 235.708 83.9187 233.971 81.7754 233.971H54.6101V202.925H77.8946C82.1812 202.925 85.6561 199.45 85.6561 195.163V179.64C85.6561 175.354 82.1812 171.879 77.8946 171.879H54.6101C50.3236 171.879 46.8486 175.354 46.8486 179.64ZM77.8946 179.64H54.6101V195.163H77.8946V179.64Z" fill="white"/>
<path fill-rule="evenodd" clip-rule="evenodd" d="M0.279785 233.971V183.521C0.279785 177.091 5.4922 171.879 11.922 171.879C18.3519 171.879 23.5643 177.091 23.5643 183.521V202.925H31.3258C35.6124 202.925 39.0873 206.4 39.0873 210.686V233.971C39.0873 238.257 35.6124 241.732 31.3258 241.732H8.04129C3.75473 241.732 0.279785 238.257 0.279785 233.971ZM11.922 179.64C9.77876 179.64 8.04129 181.378 8.04129 183.521V202.925H15.8028V183.521C15.8028 181.378 14.0653 179.64 11.922 179.64ZM8.04129 233.971V210.686H31.3258V233.971H8.04129Z" fill="white"/>
<path d="M167.152 210.687H136.106C133.963 210.687 132.225 208.95 132.225 206.807C132.225 204.663 133.963 202.926 136.106 202.926H167.152C169.295 202.926 171.033 204.663 171.033 206.807C171.033 208.95 169.295 210.687 167.152 210.687Z" fill="white"/>
<path d="M209.84 259.594H198.198C196.055 259.594 194.317 257.856 194.317 255.713C194.317 253.57 196.055 251.832 198.198 251.832H229.244C231.387 251.832 233.125 253.57 233.125 255.713C233.125 257.856 231.387 259.594 229.244 259.594H217.602V317.907C217.602 320.051 215.864 321.788 213.721 321.788C211.578 321.788 209.84 320.051 209.84 317.907V259.594Z" fill="white"/>
<path d="M258.752 62.8696V3.79012C258.752 1.75083 260.406 0.0976562 262.445 0.0976562C264.484 0.0976562 266.137 1.75083 266.137 3.79012V14.8675H280.907V3.79012C280.907 1.75083 282.56 0.0976562 284.6 0.0976562C286.639 0.0976562 288.292 1.75083 288.292 3.79012V14.8675C288.292 18.9461 284.986 22.2525 280.907 22.2525H266.137V29.6374H288.292C292.371 29.6374 295.677 32.9437 295.677 37.0223V62.8696C295.677 64.9089 294.024 66.562 291.985 66.562C289.945 66.562 288.292 64.9089 288.292 62.8696V37.0223H266.137V62.8696C266.137 64.9089 264.484 66.562 262.445 66.562C260.406 66.562 258.752 64.9089 258.752 62.8696Z" fill="white"/>
<path fill-rule="evenodd" clip-rule="evenodd" d="M225.52 66.562C223.481 66.562 221.828 64.9089 221.828 62.8696V7.48259C221.828 3.404 225.134 0.0976562 229.213 0.0976562H243.982C248.061 0.0976562 251.367 3.404 251.367 7.48259V62.8696C251.367 64.9089 249.714 66.562 247.675 66.562C245.636 66.562 243.982 64.9089 243.982 62.8696V37.0223H229.213V62.8696C229.213 64.9089 227.559 66.562 225.52 66.562ZM229.213 29.6374V7.48259H243.982V29.6374H229.213Z" fill="white"/>
<path fill-rule="evenodd" clip-rule="evenodd" d="M177.518 78.5147V133.902C177.518 137.98 180.824 141.287 184.903 141.287H207.058C211.136 141.287 214.443 137.98 214.443 133.902V111.747C214.443 107.668 211.136 104.362 207.058 104.362H184.903V78.5147C184.903 76.4754 183.25 74.8223 181.211 74.8223C179.171 74.8223 177.518 76.4754 177.518 78.5147ZM184.903 133.902V111.747H207.058V133.902H184.903Z" fill="white"/>
<path d="M221.828 137.594V78.5147C221.828 76.4754 223.481 74.8223 225.52 74.8223C227.559 74.8223 229.213 76.4754 229.213 78.5147V137.594C229.213 139.633 227.559 141.287 225.52 141.287C223.481 141.287 221.828 139.633 221.828 137.594Z" fill="white"/>
<path d="M37.2044 51.7922H29.8195V59.1771C29.8195 63.2557 26.5132 66.562 22.4346 66.562H7.66472C3.58613 66.562 0.279785 63.2557 0.279785 59.1771V3.79012C0.279785 1.75083 1.93296 0.0976562 3.97225 0.0976562C6.01154 0.0976562 7.66472 1.75083 7.66472 3.79012V59.1771H22.4346V51.7922C22.4346 47.7136 25.7409 44.4072 29.8195 44.4072H37.2044V3.79012C37.2044 1.75083 38.8576 0.0976562 40.8969 0.0976562C42.9362 0.0976562 44.5894 1.75083 44.5894 3.79012V62.8696C44.5894 64.9089 42.9362 66.562 40.8969 66.562C38.8576 66.562 37.2044 64.9089 37.2044 62.8696V51.7922Z" fill="white"/>
<path d="M81.514 126.517H74.1291V133.902C74.1291 137.98 70.8227 141.287 66.7442 141.287H51.9743C47.8957 141.287 44.5894 137.98 44.5894 133.902V78.5147C44.5894 76.4754 46.2425 74.8223 48.2818 74.8223C50.3211 74.8223 51.9743 76.4754 51.9743 78.5147V133.902H66.7442V126.517C66.7442 122.438 70.0505 119.132 74.1291 119.132H81.514V78.5147C81.514 76.4754 83.1672 74.8223 85.2065 74.8223C87.2458 74.8223 88.8989 76.4754 88.8989 78.5147V137.594C88.8989 139.633 87.2458 141.287 85.2065 141.287C83.1672 141.287 81.514 139.633 81.514 137.594V126.517Z" fill="white"/>
<path d="M273.522 126.517H266.137V133.902C266.137 137.98 262.831 141.287 258.752 141.287H243.983C239.904 141.287 236.598 137.98 236.598 133.902V78.5147C236.598 76.4754 238.251 74.8223 240.29 74.8223C242.329 74.8223 243.983 76.4754 243.983 78.5147V133.902H258.752V126.517C258.752 122.438 262.059 119.132 266.137 119.132H273.522V78.5147C273.522 76.4754 275.175 74.8223 277.215 74.8223C279.254 74.8223 280.907 76.4754 280.907 78.5147V137.594C280.907 139.633 279.254 141.287 277.215 141.287C275.175 141.287 273.522 139.633 273.522 137.594V126.517Z" fill="white"/>
<path d="M51.9741 62.8696V3.79012C51.9741 1.75083 53.6273 0.0976562 55.6666 0.0976562C57.7059 0.0976562 59.3591 1.75083 59.3591 3.79012V29.6374H74.1289V3.79012C74.1289 1.75083 75.7821 0.0976562 77.8214 0.0976562C79.8607 0.0976562 81.5138 1.75083 81.5138 3.79012V62.8696C81.5138 64.9089 79.8607 66.562 77.8214 66.562C75.7821 66.562 74.1289 64.9089 74.1289 62.8696V37.0223H59.3591V62.8696C59.3591 64.9089 57.7059 66.562 55.6666 66.562C53.6273 66.562 51.9741 64.9089 51.9741 62.8696Z" fill="white"/>
<path d="M140.594 137.594V78.5147C140.594 76.4754 142.247 74.8223 144.286 74.8223C146.325 74.8223 147.978 76.4754 147.978 78.5147V104.362H162.748V78.5147C162.748 76.4754 164.401 74.8223 166.441 74.8223C168.48 74.8223 170.133 76.4754 170.133 78.5147V137.594C170.133 139.633 168.48 141.287 166.441 141.287C164.401 141.287 162.748 139.633 162.748 137.594V111.747H147.978V137.594C147.978 139.633 146.325 141.287 144.286 141.287C142.247 141.287 140.594 139.633 140.594 137.594Z" fill="white"/>
<path fill-rule="evenodd" clip-rule="evenodd" d="M133.208 7.48259V59.1771C133.208 63.2557 136.515 66.562 140.593 66.562H166.441C168.48 66.562 170.133 64.9089 170.133 62.8696C170.133 60.8303 168.48 59.1771 166.441 59.1771H140.593V29.6374H162.748C166.827 29.6374 170.133 26.331 170.133 22.2525V7.48259C170.133 3.404 166.827 0.0976562 162.748 0.0976562H140.593C136.515 0.0976562 133.208 3.404 133.208 7.48259ZM162.748 7.48259H140.593V22.2525H162.748V7.48259Z" fill="white"/>
<path fill-rule="evenodd" clip-rule="evenodd" d="M177.518 7.48259V62.8696C177.518 64.9089 179.171 66.562 181.211 66.562C183.25 66.562 184.903 64.9089 184.903 62.8696V37.0223H207.058C211.136 37.0223 214.443 33.716 214.443 29.6374V7.48259C214.443 3.404 211.136 0.0976562 207.058 0.0976562H184.903C180.824 0.0976562 177.518 3.404 177.518 7.48259ZM184.903 29.6374V7.48259H207.058V29.6374H184.903Z" fill="white"/>
<path d="M336.294 29.6369H306.754C304.715 29.6369 303.062 27.9837 303.062 25.9444C303.062 23.9051 304.715 22.252 306.754 22.252H336.294C338.333 22.252 339.987 23.9051 339.987 25.9444C339.987 27.9837 338.333 29.6369 336.294 29.6369Z" fill="white"/>
<path d="M15.0496 82.2072H3.97225C1.93296 82.2072 0.279785 80.554 0.279785 78.5147C0.279785 76.4754 1.93296 74.8223 3.97225 74.8223H33.512C35.5513 74.8223 37.2044 76.4754 37.2044 78.5147C37.2044 80.554 35.5513 82.2072 33.512 82.2072H22.4346V137.692C22.4346 139.731 20.7814 141.384 18.7421 141.384C16.7028 141.384 15.0496 139.731 15.0496 137.692V82.2072Z" fill="white"/>
<path d="M103.669 7.38493H92.5914C90.5521 7.38493 88.8989 5.73176 88.8989 3.69247C88.8989 1.65317 90.5521 0 92.5914 0H122.131C124.17 0 125.824 1.65317 125.824 3.69247C125.824 5.73176 124.17 7.38493 122.131 7.38493H111.054V62.8695C111.054 64.9087 109.401 66.5619 107.361 66.5619C105.322 66.5619 103.669 64.9087 103.669 62.8695V7.38493Z" fill="white"/>
<path fill-rule="evenodd" clip-rule="evenodd" d="M96.2837 133.902V85.8997C96.2837 79.7818 101.243 74.8223 107.361 74.8223C113.479 74.8223 118.438 79.7818 118.438 85.8997V104.362H125.823C129.902 104.362 133.208 107.668 133.208 111.747V133.902C133.208 137.98 129.902 141.287 125.823 141.287H103.669C99.59 141.287 96.2837 137.98 96.2837 133.902ZM107.361 82.2072C105.322 82.2072 103.669 83.8604 103.669 85.8997V104.362H111.054V85.8997C111.054 83.8604 109.4 82.2072 107.361 82.2072ZM103.669 133.902V111.747H125.823V133.902H103.669Z" fill="white"/>
<path d="M262.445 74.8224H255.06C253.021 74.8224 251.367 73.1693 251.367 71.13C251.367 69.0907 253.021 67.4375 255.06 67.4375H262.445C264.484 67.4375 266.137 69.0907 266.137 71.13C266.137 73.1693 264.484 74.8224 262.445 74.8224Z" fill="white"/>
</svg>
