<svg width="421" height="337" viewBox="0 0 421 337" fill="none" xmlns="http://www.w3.org/2000/svg">
<path d="M0 252.229H202.649V152.229C202.649 130.137 220.558 112.229 242.649 112.229H246.649C268.741 112.229 286.649 130.137 286.649 152.229V294.229C286.649 301.961 292.917 308.229 300.649 308.229C308.381 308.229 314.649 301.961 314.649 294.229V28.2285C314.649 12.7645 327.185 0.228516 342.649 0.228516H420.366V28.2285H342.649V296.229C342.649 318.32 324.741 336.229 302.649 336.229H298.649C276.558 336.229 258.649 318.32 258.649 296.229V154.229C258.649 146.497 252.381 140.229 244.649 140.229C236.917 140.229 230.649 146.497 230.649 154.229V252.229C230.649 267.692 218.113 280.229 202.649 280.229H0V252.229Z" fill="black"/>
</svg>
