<svg width="313" height="444" viewBox="0 0 313 444" fill="none" xmlns="http://www.w3.org/2000/svg">
<circle cx="128.192" cy="344.51" r="14.1465" fill="white"/>
<circle cx="241.363" cy="231.338" r="14.1465" fill="white"/>
<circle cx="297.956" cy="287.729" r="14.1465" fill="white"/>
<path d="M0.874512 344.512V429.391C0.874512 437.204 7.20814 443.538 15.0211 443.538C22.834 443.538 29.1676 437.204 29.1676 429.391V344.512C29.1676 336.699 35.5012 330.365 43.3141 330.365C51.1271 330.365 57.4607 336.699 57.4607 344.512V401.098C57.4607 424.537 76.4616 443.538 99.9003 443.538C123.339 443.538 142.34 424.537 142.34 401.098V372.805C142.34 364.992 136.006 358.658 128.193 358.658C120.38 358.658 114.047 364.992 114.047 372.805V401.098C114.047 408.911 107.713 415.245 99.9003 415.245C92.0874 415.245 85.7538 408.911 85.7538 401.098V344.512C85.7538 321.073 66.7529 302.072 43.3141 302.072C19.8754 302.072 0.874512 321.073 0.874512 344.512Z" fill="white"/>
<path d="M198.926 401.098V145.179C198.926 121.74 179.925 102.739 156.486 102.739C133.048 102.739 114.047 121.74 114.047 145.179V316.219C114.047 324.032 120.38 330.365 128.193 330.365C136.006 330.365 142.34 324.032 142.34 316.219V145.179C142.34 137.366 148.674 131.033 156.486 131.033C164.299 131.033 170.633 137.366 170.633 145.179V401.098C170.633 424.537 189.634 443.538 213.073 443.538C236.511 443.538 255.512 424.537 255.512 401.098V259.633C255.512 251.82 249.179 245.486 241.366 245.486C233.553 245.486 227.219 251.82 227.219 259.633V401.098C227.219 408.911 220.886 415.245 213.073 415.245C205.26 415.245 198.926 408.911 198.926 401.098Z" fill="white"/>
<path d="M255.512 203.046V42.6935C255.512 34.8806 261.846 28.547 269.659 28.547C277.472 28.547 283.805 34.8806 283.805 42.6935V259.633C283.805 267.446 290.139 273.779 297.952 273.779C305.765 273.779 312.098 267.446 312.098 259.633V42.6935C312.098 19.2548 293.098 0.253906 269.659 0.253906C246.22 0.253906 227.219 19.2548 227.219 42.6935V203.046C227.219 210.859 233.553 217.193 241.366 217.193C249.179 217.193 255.512 210.859 255.512 203.046Z" fill="white"/>
<path d="M312.098 429.391V316.219C312.098 308.406 305.765 302.072 297.952 302.072C290.139 302.072 283.805 308.406 283.805 316.219V429.391C283.805 437.204 290.139 443.538 297.952 443.538C305.765 443.538 312.098 437.204 312.098 429.391Z" fill="white"/>
</svg>
