<svg width="460" height="196" viewBox="0 0 460 196" fill="none" xmlns="http://www.w3.org/2000/svg">
<path d="M134.779 56.1895H0V84.1895H134.779L134.779 156.001C134.78 178.092 152.688 196 174.779 196H178C200.091 196 218 178.092 218 156V28H330V140C330 155.464 342.536 168 358 168H459.854V140H358V28C358 12.536 345.464 0 330 0H218C202.536 0 190 12.536 190 28V154.39C190 161.907 183.907 168 176.39 168C168.874 168 162.78 161.907 162.78 154.391L162.779 84.189C162.779 68.7252 150.243 56.1895 134.779 56.1895Z" fill="black"/>
</svg>
