<svg width="320" height="559" viewBox="0 0 320 559" fill="none" xmlns="http://www.w3.org/2000/svg">
<path d="M60 0H0V10H60V90C60 95.5229 64.4772 100 70 100H289.677V300.45H120C114.477 300.45 110 304.927 110 310.45V339.624H30C24.4772 339.624 20 344.101 20 349.624V488.587C20 494.11 24.4772 498.587 30 498.587H200V548.587C200 554.11 204.477 558.587 210 558.587H320V548.587H210V498.587C210 493.065 205.523 488.587 200 488.587H30V349.624H110C115.523 349.624 120 345.146 120 339.624V310.45H289.677C295.2 310.45 299.677 305.973 299.677 300.45V100C299.677 94.4771 295.2 90 289.677 90H70V10C70 4.47715 65.5229 0 60 0Z" fill="#FF83C1"/>
<circle cx="180.036" cy="95" r="5" fill="black"/>
<circle cx="205" cy="305.564" r="5" fill="black"/>
<circle cx="115" cy="493.598" r="5" fill="black"/>
</svg>
