<svg width="768" height="281" viewBox="0 0 768 281" fill="none" xmlns="http://www.w3.org/2000/svg">
<path d="M520.236 20.7461H768V0.746094H520.236C509.19 0.746094 500.236 9.70039 500.236 20.7461V161.585H307.71V131.585C307.71 115.016 294.279 101.585 277.71 101.585C261.142 101.585 247.71 115.016 247.71 131.585V261H0V281H247.71C258.756 281 267.71 272.045 267.71 261V131.585C267.71 126.062 272.187 121.585 277.71 121.585C283.233 121.585 287.71 126.062 287.71 131.585V161.585C287.71 172.631 296.664 181.585 307.71 181.585H500.236C511.282 181.585 520.236 172.631 520.236 161.585V20.7461Z" fill="#FF83C1"/>
<circle cx="401.651" cy="171.598" r="10" fill="black"/>
<circle cx="134.5" cy="271" r="10" fill="black"/>
</svg>
