<svg width="338" height="90" viewBox="0 0 338 90" fill="none" xmlns="http://www.w3.org/2000/svg">
<path fill-rule="evenodd" clip-rule="evenodd" d="M257.895 15.0044V74.4984C257.895 82.7128 264.554 89.3719 272.768 89.3719C280.982 89.3719 287.642 82.7128 287.642 74.4984V15.0044C287.642 6.78996 280.982 0.130859 272.768 0.130859C264.554 0.130859 257.895 6.78996 257.895 15.0044ZM272.768 79.4562C275.506 79.4562 277.726 77.2365 277.726 74.4984V15.0044C277.726 12.2662 275.506 10.0465 272.768 10.0465V10.0465C270.03 10.0465 267.81 12.2662 267.81 15.0044V74.4984C267.81 77.2365 270.03 79.4562 272.768 79.4562V79.4562Z" fill="#FF83C1"/>
<path d="M218.287 14.9773V84.4141C218.287 87.1522 220.506 89.3719 223.244 89.3719C225.983 89.3719 228.202 87.1522 228.202 84.4141V14.9773C228.202 12.2541 230.41 10.0465 233.133 10.0465C235.856 10.0465 238.064 12.2541 238.064 14.9773V84.4141C238.064 87.1522 240.284 89.3719 243.022 89.3719C245.76 89.3719 247.979 87.1522 247.979 84.4141V14.9773C247.979 6.77783 241.333 0.130859 233.133 0.130859C224.934 0.130859 218.287 6.77785 218.287 14.9773Z" fill="#FF83C1"/>
<path d="M129.047 9.91567H114.174C111.436 9.91567 109.216 7.69597 109.216 4.95784C109.216 2.2197 111.436 0 114.174 0H153.836C156.574 0 158.794 2.2197 158.794 4.95784C158.794 7.69597 156.574 9.91567 153.836 9.91567H138.963V84.4142C138.963 87.1523 136.743 89.372 134.005 89.372C131.267 89.372 129.047 87.1523 129.047 84.4142V9.91567Z" fill="#FF83C1"/>
<path d="M0.144531 84.2832V4.95784C0.144531 2.2197 2.36423 0 5.10237 0C7.84051 0 10.0602 2.2197 10.0602 4.95784V19.8313H29.8915V4.95784C29.8915 2.2197 32.1112 0 34.8494 0C37.5875 0 39.8072 2.2197 39.8072 4.95784V19.8313C39.8072 25.3076 35.3678 29.747 29.8915 29.747H10.0602V39.6627H39.8072C45.2835 39.6627 49.7229 44.1021 49.7229 49.5784V84.2832C49.7229 87.0213 47.5032 89.241 44.7651 89.241C42.0269 89.241 39.8072 87.0213 39.8072 84.2832V49.5784H10.0602V84.2832C10.0602 87.0213 7.84051 89.241 5.10237 89.241C2.36423 89.241 0.144531 87.0213 0.144531 84.2832Z" fill="#FF83C1"/>
<path fill-rule="evenodd" clip-rule="evenodd" d="M64.596 89.241C61.8579 89.241 59.6382 87.0213 59.6382 84.2832V9.91567V9.91567C59.6382 4.4394 64.0776 0 69.5539 0V0H89.3852V0C94.8615 0 99.3009 4.4394 99.3009 9.91567V9.91567V84.2832C99.3009 87.0213 97.0812 89.241 94.343 89.241V89.241C91.6049 89.241 89.3852 87.0213 89.3852 84.2832V49.5784H69.5539V84.2832C69.5539 87.0213 67.3342 89.241 64.596 89.241V89.241ZM69.5539 39.6627V9.91567H89.3852V39.6627H69.5539Z" fill="#FF83C1"/>
<path fill-rule="evenodd" clip-rule="evenodd" d="M173.667 89.241C170.929 89.241 168.709 87.0213 168.709 84.2832V9.91567V9.91567C168.709 4.4394 173.148 0 178.625 0V0H198.456V0C203.932 0 208.372 4.4394 208.372 9.91567V9.91567V84.2832C208.372 87.0213 206.152 89.241 203.414 89.241V89.241C200.676 89.241 198.456 87.0213 198.456 84.2832V49.5784H178.625V84.2832C178.625 87.0213 176.405 89.241 173.667 89.241V89.241ZM178.625 39.6627V9.91567H198.456V39.6627H178.625Z" fill="#FF83C1"/>
<path d="M307.527 9.91567V84.2832C307.527 87.0213 305.307 89.241 302.569 89.241C299.831 89.241 297.611 87.0213 297.611 84.2832V9.91567C297.611 4.4394 302.051 0 307.527 0H332.316C335.054 0 337.274 2.2197 337.274 4.95784C337.274 7.69597 335.054 9.91567 332.316 9.91567H307.527Z" fill="#FF83C1"/>
</svg>
