<svg width="397" height="90" viewBox="0 0 397 90" fill="none" xmlns="http://www.w3.org/2000/svg">
<path fill-rule="evenodd" clip-rule="evenodd" d="M49.542 14.9935V74.444C49.542 82.6524 56.1962 89.3066 64.4046 89.3066C72.613 89.3066 79.2672 82.6524 79.2672 74.444V14.9935C79.2672 6.78509 72.613 0.130859 64.4046 0.130859C56.1962 0.130859 49.542 6.78508 49.542 14.9935ZM64.4046 79.3982C67.1408 79.3982 69.3588 77.1801 69.3588 74.444V14.9935C69.3588 12.2574 67.1408 10.0393 64.4046 10.0393V10.0393C61.6685 10.0393 59.4504 12.2574 59.4504 14.9935V74.444C59.4504 77.1801 61.6685 79.3982 64.4046 79.3982V79.3982Z" fill="#FF83C1"/>
<path d="M237.802 9.90842H222.939C220.203 9.90842 217.985 7.69034 217.985 4.95421C217.985 2.21808 220.203 0 222.939 0H262.573C265.309 0 267.527 2.21808 267.527 4.95421C267.527 7.69034 265.309 9.90842 262.573 9.90842H247.71V84.3524C247.71 87.0886 245.492 89.3066 242.756 89.3066C240.02 89.3066 237.802 87.0886 237.802 84.3524V9.90842Z" fill="#FF83C1"/>
<path d="M9.90842 79.3982H34.6795C37.4156 79.3982 39.6337 81.6163 39.6337 84.3524C39.6337 87.0885 37.4156 89.3066 34.6795 89.3066H9.90842C4.43615 89.3066 0 84.8705 0 79.3982V10.0393C0 4.56701 4.43615 0.130859 9.90842 0.130859H34.6795C37.4156 0.130859 39.6337 2.34893 39.6337 5.08507C39.6337 7.8212 37.4156 10.0393 34.6795 10.0393H9.90842V79.3982Z" fill="#FF83C1"/>
<path fill-rule="evenodd" clip-rule="evenodd" d="M99.0842 0.130859C93.6119 0.130859 89.1758 4.56701 89.1758 10.0393V10.0393V79.3982V79.3982C89.1758 84.8705 93.6119 89.3066 99.0842 89.3066V89.3066H118.901V89.3066C124.373 89.3066 128.809 84.8705 128.809 79.3982V79.3982V49.8167V49.8167C128.809 44.3444 124.373 39.9082 118.901 39.9082V39.9082H99.0842V10.0393H123.855C126.591 10.0393 128.809 7.8212 128.809 5.08507V5.08507C128.809 2.34893 126.591 0.130859 123.855 0.130859H99.0842V0.130859ZM99.0842 79.3982V49.8167H118.901V79.3982H99.0842Z" fill="#FF83C1"/>
<path fill-rule="evenodd" clip-rule="evenodd" d="M138.718 5.08507V79.3982C138.718 84.8705 143.154 89.3066 148.626 89.3066H178.351C183.824 89.3066 188.26 84.8705 188.26 79.3982V49.6729C188.26 44.2007 183.824 39.7645 178.351 39.7645H148.626V5.08507C148.626 2.34893 146.408 0.130859 143.672 0.130859C140.936 0.130859 138.718 2.34893 138.718 5.08507ZM148.626 79.3982V49.6729H178.351V79.3982H148.626Z" fill="#FF83C1"/>
<path d="M198.168 84.3524V5.08507C198.168 2.34893 200.387 0.130859 203.123 0.130859C205.859 0.130859 208.077 2.34893 208.077 5.08506V84.3524C208.077 87.0885 205.859 89.3066 203.123 89.3066C200.387 89.3066 198.168 87.0885 198.168 84.3524Z" fill="#FF83C1"/>
<path d="M326.978 69.5542H317.07V79.4626C317.07 84.9349 312.634 89.3711 307.161 89.3711H287.344C281.872 89.3711 277.436 84.9349 277.436 79.4626V5.14952C277.436 2.41339 279.654 0.195312 282.39 0.195312C285.126 0.195312 287.344 2.41339 287.344 5.14952V79.4626H307.161V69.5542C307.161 64.082 311.597 59.6458 317.07 59.6458H326.978V5.14952C326.978 2.41339 329.196 0.195312 331.932 0.195312C334.668 0.195312 336.887 2.41338 336.887 5.14952V84.4169C336.887 87.153 334.668 89.3711 331.932 89.3711C329.196 89.3711 326.978 87.153 326.978 84.4169V69.5542Z" fill="#FF83C1"/>
<path fill-rule="evenodd" clip-rule="evenodd" d="M346.794 10.1037V29.9206C346.794 35.3928 351.231 39.829 356.703 39.829H386.428V49.7374H356.703C351.231 49.7374 346.794 54.1735 346.794 59.6458V84.4169C346.794 87.153 349.013 89.3711 351.749 89.3711C354.485 89.3711 356.703 87.153 356.703 84.4169V59.6458H386.428V84.4169C386.428 87.153 388.646 89.3711 391.382 89.3711C394.118 89.3711 396.337 87.153 396.337 84.4169V10.1037C396.337 4.63146 391.9 0.195313 386.428 0.195313L356.703 0.195312C351.231 0.195312 346.794 4.63146 346.794 10.1037ZM356.703 29.9206V10.1037H386.428V29.9206H356.703Z" fill="#FF83C1"/>
</svg>
