<svg width="340" height="147" viewBox="0 0 340 147" fill="none" xmlns="http://www.w3.org/2000/svg">
<path d="M0 97V136.368C0 141.891 4.47715 146.368 10 146.368C15.5228 146.368 20 141.891 20 136.368V97H200C211.046 97 220 88.0457 220 77.0001L220 30.8418C220 25.3189 224.477 20.8418 230 20.8418C235.523 20.8418 240 25.319 240 30.8418L240 119.384C240 130.43 248.954 139.385 260 139.385H340V119.385H260L260 30.8418C260 14.2733 246.569 0.841797 230 0.841797C213.432 0.841797 200 14.2732 200 30.8417L200 77H20C8.95431 77 0 85.9543 0 97Z" fill="#A4DDD4"/>
</svg>
