<svg width="280" height="221" viewBox="0 0 280 221" fill="none" xmlns="http://www.w3.org/2000/svg">
<path d="M20 149.908V10.9414C20 5.41856 15.5228 0.941406 10 0.941406C4.47715 0.941406 0 5.41856 0 10.9414V149.908C0 166.477 13.4315 179.908 30 179.908C46.5685 179.908 60 166.477 60 149.908V59.7951H120L120 190.145C120 206.714 133.431 220.145 150 220.145C166.569 220.145 180 206.714 180 190.145V160.759H270C275.523 160.759 280 156.282 280 150.759C280 145.236 275.523 140.759 270 140.759H180C168.954 140.759 160 149.713 160 160.759V190.146C160 195.668 155.523 200.146 150 200.146C144.477 200.146 140 195.668 140 190.146L140 59.795C140 48.7493 131.046 39.795 120 39.795H60C48.9543 39.795 40 48.7493 40 59.795V149.908C40 155.431 35.5228 159.908 30 159.908C24.4772 159.908 20 155.431 20 149.908Z" fill="#A4DDD4"/>
</svg>
