<svg width="620" height="281" viewBox="0 0 620 281" fill="none" xmlns="http://www.w3.org/2000/svg">
<path d="M0 70.6889V139.689C0 145.212 4.47715 149.689 10 149.689C15.5228 149.689 20 145.212 20 139.689V70.6889C20 65.1661 24.4772 60.6889 30 60.6889C35.5229 60.6889 40.0001 65.166 40.0001 70.6889V100.689C40.0001 111.735 48.9544 120.689 60.0001 120.689H120C131.046 120.689 140 111.735 140 100.689L140 20.998H240V100.998C240 112.044 248.954 120.998 260 120.998H340V260.692C340 271.737 348.954 280.692 360 280.692H420C431.046 280.692 440 271.737 440 260.692V180.692H480V240.692C480 251.737 488.954 260.692 500 260.692H600C611.046 260.692 620 251.737 620 240.692V151.807C620 146.284 615.523 141.807 610 141.807C604.477 141.807 600 146.284 600 151.807V240.692H500V180.692C500 169.646 491.046 160.692 480 160.692H440C428.954 160.692 420 169.646 420 180.692V260.692H360V120.998C360 109.952 351.046 100.998 340 100.998H260V20.998C260 9.95235 251.046 0.998047 240 0.998047H140C128.954 0.998047 120 9.95236 120 20.9981L120 100.689H60.0001V70.6889C60.0001 54.1203 46.5686 40.6889 30 40.6889C13.4315 40.6889 0 54.1203 0 70.6889Z" fill="#A4DDD4"/>
</svg>
