<svg width="221" height="340" viewBox="0 0 221 340" fill="none" xmlns="http://www.w3.org/2000/svg">
<path d="M120.291 200H130.291C135.814 200 140.291 204.477 140.291 210C140.291 215.523 135.814 220 130.291 220H120.291V310C120.291 326.569 106.86 340 90.291 340C73.7225 340 60.291 326.569 60.291 310V160C60.291 148.954 69.2453 140 80.291 140H200.291V100H80.291C69.2453 100 60.291 91.0457 60.291 80V20H0.291016V0H60.291C71.3367 0 80.291 8.95431 80.291 20V80H200.291C211.337 80 220.291 88.9543 220.291 100V140C220.291 151.046 211.337 160 200.291 160H80.291V310C80.291 315.523 84.7682 320 90.291 320C95.8139 320 100.291 315.523 100.291 310V220C100.291 208.954 109.245 200 120.291 200Z" fill="#A4DDD4"/>
</svg>
