<svg width="141" height="140" viewBox="0 0 141 140" fill="none" xmlns="http://www.w3.org/2000/svg">
<path d="M0.291016 70V10C0.291016 4.47715 4.76817 0 10.291 0C15.8139 0 20.291 4.47715 20.291 10V70C20.291 75.5229 24.7682 80 30.291 80C35.8139 80 40.291 75.5229 40.291 70V40C40.291 28.9543 49.2453 20 60.291 20H120.291C131.337 20 140.291 28.9543 140.291 40V130C140.291 135.523 135.814 140 130.291 140C124.768 140 120.291 135.523 120.291 130V40H60.291V70C60.291 86.5685 46.8596 100 30.291 100C13.7225 100 0.291016 86.5685 0.291016 70Z" fill="#A4DDD4"/>
</svg>
