<svg width="121" height="110" viewBox="0 0 121 110" fill="none" xmlns="http://www.w3.org/2000/svg">
<path d="M30.291 50H5.29102C2.52959 50 0.291016 47.7614 0.291016 45C0.291016 42.2386 2.52959 40 5.29102 40H30.291C35.8139 40 40.291 44.4771 40.291 50L40.2911 65C40.2911 67.7614 42.5296 70 45.2911 70C48.0525 70 50.2911 67.7614 50.2911 65V10C50.2911 4.47715 54.7682 0 60.2911 0H110.291C115.814 0 120.291 4.47716 120.291 10V90C120.291 95.5229 115.814 100 110.291 100H90.2911V105C90.2911 107.761 88.0525 110 85.2911 110C82.5297 110 80.2911 107.761 80.2911 105V100C80.2911 94.4771 84.7682 90 90.2911 90H110.291V10H60.2911V65C60.2911 73.2843 53.5753 80 45.2911 80C37.0068 80 30.2911 73.2843 30.291 65L30.291 50Z" fill="#A4DDD4"/>
</svg>
