<svg width="1897" height="221" viewBox="0 0 1897 221" fill="none" xmlns="http://www.w3.org/2000/svg">
<path d="M1195.89 37.5796V208.321C1195.89 215.056 1201.35 220.516 1208.09 220.516C1214.82 220.516 1220.28 215.056 1220.28 208.321V37.5796C1220.28 30.844 1225.74 25.3838 1232.48 25.3838C1239.22 25.3838 1244.68 30.844 1244.68 37.5796V183.929C1244.68 204.136 1261.06 220.516 1281.26 220.516C1301.47 220.516 1317.85 204.136 1317.85 183.929V37.5796C1317.85 30.844 1323.31 25.3838 1330.05 25.3838C1336.78 25.3838 1342.24 30.844 1342.24 37.5796V208.321C1342.24 215.056 1347.7 220.516 1354.44 220.516C1361.17 220.516 1366.63 215.056 1366.63 208.321V37.5796C1366.63 17.3729 1350.25 0.992188 1330.05 0.992188C1309.84 0.992188 1293.46 17.3729 1293.46 37.5796V183.929C1293.46 190.665 1288 196.125 1281.26 196.125C1274.53 196.125 1269.07 190.665 1269.07 183.929V37.5796C1269.07 17.3729 1252.69 0.992188 1232.48 0.992188C1212.27 0.992188 1195.89 17.3729 1195.89 37.5796Z" fill="#FF83C1"/>
<path d="M366.58 208.321V25.3838H317.796V208.321C317.796 215.056 312.336 220.516 305.601 220.516C298.865 220.516 293.405 215.056 293.405 208.321V25.3838C293.405 11.9127 304.325 0.992188 317.796 0.992188H366.58C380.051 0.992188 390.971 11.9127 390.971 25.3838V27.1346V208.321C390.971 215.056 385.511 220.516 378.775 220.516C372.04 220.516 366.58 215.056 366.58 208.321Z" fill="#FF83C1"/>
<path d="M0.705566 208.321V13.188C0.705566 6.45243 6.16581 0.992188 12.9014 0.992188C19.6369 0.992188 25.0971 6.45242 25.0971 13.188V49.7754H73.8803V13.188C73.8803 6.45243 79.3406 0.992188 86.0761 0.992188C92.8117 0.992188 98.2719 6.45242 98.2719 13.188V49.7754C98.2719 63.2465 87.3514 74.1669 73.8803 74.1669H25.0971V98.5585H98.2719C111.743 98.5585 122.663 109.479 122.663 122.95V208.321C122.663 215.056 117.203 220.516 110.468 220.516C103.732 220.516 98.2719 215.056 98.2719 208.321V122.95H25.0971V208.321C25.0971 215.056 19.6369 220.516 12.9014 220.516C6.16581 220.516 0.705566 215.056 0.705566 208.321Z" fill="#FF83C1"/>
<path fill-rule="evenodd" clip-rule="evenodd" d="M817.824 220.516C811.088 220.516 805.628 215.056 805.628 208.321V25.3838V25.3838C805.628 11.9127 816.548 0.992188 830.02 0.992188V0.992188H878.803V0.992188C892.274 0.992188 903.194 11.9127 903.194 25.3838V25.3838V208.321C903.194 215.056 897.734 220.516 890.998 220.516V220.516C884.263 220.516 878.803 215.056 878.803 208.321V122.95H830.02V208.321C830.02 215.056 824.559 220.516 817.824 220.516V220.516ZM830.02 98.5585V25.3838H878.803V98.5585H830.02Z" fill="#FF83C1"/>
<path d="M537.32 171.733H512.929V196.125C512.929 209.596 502.008 220.516 488.537 220.516H439.754C426.283 220.516 415.362 209.596 415.362 196.125V13.188C415.362 6.45243 420.823 0.992188 427.558 0.992188C434.294 0.992188 439.754 6.45243 439.754 13.188V196.125H488.537V171.733C488.537 158.262 499.458 147.342 512.929 147.342H537.32V13.188C537.32 6.45243 542.78 0.992188 549.516 0.992188C556.252 0.992188 561.712 6.45241 561.712 13.188V208.321C561.712 215.056 556.252 220.516 549.516 220.516C542.78 220.516 537.32 215.056 537.32 208.321V171.733Z" fill="#FF83C1"/>
<path d="M244.621 196.125V98.5585H171.447C157.976 98.5585 147.055 87.638 147.055 74.1669V13.188C147.055 6.45243 152.515 0.992188 159.251 0.992188C165.987 0.992188 171.447 6.45242 171.447 13.188V74.1669H244.621V13.188C244.621 6.45243 250.082 0.992188 256.817 0.992188C263.553 0.992188 269.013 6.45243 269.013 13.188V196.125C269.013 209.596 258.093 220.516 244.621 220.516H159.251C152.515 220.516 147.055 215.056 147.055 208.321C147.055 201.585 152.515 196.125 159.251 196.125H244.621Z" fill="#FF83C1"/>
<path d="M683.67 208.321V13.188C683.67 6.45243 689.13 0.992188 695.866 0.992188C702.601 0.992188 708.062 6.45242 708.062 13.188V98.5585H756.845V13.188C756.845 6.45243 762.305 0.992188 769.04 0.992188C775.776 0.992188 781.236 6.45241 781.236 13.188V208.321C781.236 215.056 775.776 220.516 769.04 220.516C762.305 220.516 756.845 215.056 756.845 208.321V122.95H708.062V208.321C708.062 215.056 702.601 220.516 695.866 220.516C689.13 220.516 683.67 215.056 683.67 208.321Z" fill="#FF83C1"/>
<path d="M927.586 190.516V13.188C927.586 6.45243 933.046 0.992188 939.782 0.992188C946.517 0.992188 951.978 6.45242 951.978 13.188V196.125H1000.76V13.188C1000.76 6.45243 1006.22 0.992188 1012.96 0.992188C1019.69 0.992188 1025.15 6.45243 1025.15 13.188V196.125H1073.94V13.188C1073.94 6.45243 1079.4 0.992188 1086.13 0.992188C1092.87 0.992188 1098.33 6.45241 1098.33 13.188V190.516C1098.33 207.085 1084.9 220.516 1068.33 220.516H957.586C941.017 220.516 927.586 207.085 927.586 190.516Z" fill="#FF83C1"/>
<path fill-rule="evenodd" clip-rule="evenodd" d="M1391.03 25.3838V196.125C1391.03 209.596 1401.95 220.516 1415.42 220.516H1500.79C1507.52 220.516 1512.98 215.056 1512.98 208.321C1512.98 201.585 1507.52 196.125 1500.79 196.125H1415.42V98.5585H1488.59C1502.06 98.5585 1512.98 87.638 1512.98 74.1669V25.3838C1512.98 11.9127 1502.06 0.992188 1488.59 0.992188H1415.42C1401.95 0.992188 1391.03 11.9127 1391.03 25.3838ZM1488.59 25.3838H1415.42V74.1669H1488.59V25.3838Z" fill="#FF83C1"/>
<path fill-rule="evenodd" clip-rule="evenodd" d="M1537.38 25.3838V208.321C1537.38 215.056 1542.84 220.516 1549.57 220.516C1556.31 220.516 1561.77 215.056 1561.77 208.321V122.95H1634.94C1648.41 122.95 1659.33 112.03 1659.33 98.5585V25.3838C1659.33 11.9127 1648.41 0.992188 1634.94 0.992188H1561.77C1548.3 0.992188 1537.38 11.9127 1537.38 25.3838ZM1561.77 98.5585V25.3838H1634.94V98.5585H1561.77Z" fill="#FF83C1"/>
<path d="M1756.9 208.321V122.95H1708.12C1694.65 122.95 1683.72 112.03 1683.72 98.5585V13.188C1683.72 6.45243 1689.18 0.992188 1695.92 0.992188C1702.66 0.992188 1708.12 6.45242 1708.12 13.188V98.5585H1756.9V13.188C1756.9 6.45243 1762.36 0.992188 1769.1 0.992188C1775.83 0.992188 1781.29 6.45241 1781.29 13.188V208.321C1781.29 215.056 1775.83 220.516 1769.1 220.516C1762.36 220.516 1756.9 215.056 1756.9 208.321Z" fill="#FF83C1"/>
</svg>
