<svg width="1421" height="221" viewBox="0 0 1421 221" fill="none" xmlns="http://www.w3.org/2000/svg">
<path d="M1195.47 37.3686V208.11C1195.47 214.845 1200.93 220.305 1207.67 220.305C1214.4 220.305 1219.86 214.845 1219.86 208.11V37.3686C1219.86 30.6331 1225.32 25.1728 1232.06 25.1728C1238.79 25.1728 1244.25 30.6331 1244.25 37.3686V183.718C1244.25 203.925 1260.64 220.305 1280.84 220.305C1301.05 220.305 1317.43 203.925 1317.43 183.718V37.3686C1317.43 30.6331 1322.89 25.1728 1329.63 25.1728C1336.36 25.1728 1341.82 30.6331 1341.82 37.3686V208.11C1341.82 214.845 1347.28 220.305 1354.02 220.305C1360.75 220.305 1366.21 214.845 1366.21 208.11V37.3686C1366.21 17.162 1349.83 0.78125 1329.63 0.78125C1309.42 0.78125 1293.04 17.162 1293.04 37.3686V183.718C1293.04 190.454 1287.58 195.914 1280.84 195.914C1274.11 195.914 1268.65 190.454 1268.65 183.718V37.3686C1268.65 17.162 1252.27 0.78125 1232.06 0.78125C1211.85 0.78125 1195.47 17.162 1195.47 37.3686Z" fill="#FF83C1"/>
<path d="M366.158 208.11V25.1728H317.374V208.11C317.374 214.845 311.914 220.305 305.179 220.305C298.443 220.305 292.983 214.845 292.983 208.11V25.1728C292.983 11.7017 303.903 0.78125 317.374 0.78125H366.158C379.629 0.78125 390.549 11.7017 390.549 25.1728V26.9237V208.11C390.549 214.845 385.089 220.305 378.353 220.305C371.618 220.305 366.158 214.845 366.158 208.11Z" fill="#FF83C1"/>
<path d="M0.283936 208.11V12.977C0.283936 6.24149 5.74418 0.78125 12.4797 0.78125C19.2153 0.78125 24.6755 6.24148 24.6755 12.977V49.5644H73.4587V12.977C73.4587 6.24149 78.9189 0.78125 85.6545 0.78125C92.39 0.78125 97.8503 6.24148 97.8503 12.977V49.5644C97.8503 63.0355 86.9298 73.956 73.4587 73.956H24.6755V98.3476H97.8503C111.321 98.3476 122.242 109.268 122.242 122.739V208.11C122.242 214.845 116.782 220.305 110.046 220.305C103.311 220.305 97.8503 214.845 97.8503 208.11V122.739H24.6755V208.11C24.6755 214.845 19.2153 220.305 12.4797 220.305C5.74418 220.305 0.283936 214.845 0.283936 208.11Z" fill="#FF83C1"/>
<path fill-rule="evenodd" clip-rule="evenodd" d="M817.402 220.305C810.666 220.305 805.206 214.845 805.206 208.11V25.1728C805.206 11.7017 816.127 0.78125 829.598 0.78125H878.381C891.852 0.78125 902.772 11.7017 902.772 25.1728V208.11C902.772 214.845 897.312 220.305 890.577 220.305C883.841 220.305 878.381 214.845 878.381 208.11V122.739H829.598V208.11C829.598 214.845 824.137 220.305 817.402 220.305ZM829.598 98.3476V25.1728H878.381V98.3476H829.598Z" fill="#FF83C1"/>
<path d="M536.899 171.522H512.507V195.914C512.507 209.385 501.587 220.305 488.116 220.305H439.332C425.861 220.305 414.941 209.385 414.941 195.914V12.977C414.941 6.24149 420.401 0.78125 427.137 0.78125C433.872 0.78125 439.332 6.24149 439.332 12.977V195.914H488.116V171.522C488.116 158.051 499.036 147.131 512.507 147.131H536.899V12.977C536.899 6.24149 542.359 0.78125 549.095 0.78125C555.83 0.78125 561.29 6.24147 561.29 12.977V208.11C561.29 214.845 555.83 220.305 549.095 220.305C542.359 220.305 536.899 214.845 536.899 208.11V171.522Z" fill="#FF83C1"/>
<path d="M244.2 195.914V98.3476H171.025C157.554 98.3476 146.633 87.4271 146.633 73.956V12.977C146.633 6.24149 152.094 0.78125 158.829 0.78125C165.565 0.78125 171.025 6.24148 171.025 12.977V73.956H244.2V12.977C244.2 6.24149 249.66 0.78125 256.395 0.78125C263.131 0.78125 268.591 6.24149 268.591 12.977V195.914C268.591 209.385 257.671 220.305 244.2 220.305H158.829C152.094 220.305 146.633 214.845 146.633 208.11C146.633 201.374 152.094 195.914 158.829 195.914H244.2Z" fill="#FF83C1"/>
<path d="M683.248 208.11V12.977C683.248 6.24149 688.709 0.78125 695.444 0.78125C702.18 0.78125 707.64 6.24149 707.64 12.977V98.3476H756.423V12.977C756.423 6.24149 761.883 0.78125 768.619 0.78125C775.354 0.78125 780.815 6.24147 780.815 12.977V208.11C780.815 214.845 775.354 220.305 768.619 220.305C761.883 220.305 756.423 214.845 756.423 208.11V122.739H707.64V208.11C707.64 214.845 702.18 220.305 695.444 220.305C688.709 220.305 683.248 214.845 683.248 208.11Z" fill="#FF83C1"/>
<path d="M927.164 190.306V12.977C927.164 6.24149 932.624 0.78125 939.36 0.78125C946.095 0.78125 951.556 6.24148 951.556 12.977V195.914H1000.34V12.977C1000.34 6.24149 1005.8 0.78125 1012.53 0.78125C1019.27 0.78125 1024.73 6.24149 1024.73 12.977V195.914H1073.51V12.977C1073.51 6.24149 1078.97 0.78125 1085.71 0.78125C1092.44 0.78125 1097.91 6.24147 1097.91 12.977V190.305C1097.91 206.874 1084.47 220.305 1067.91 220.305H957.164C940.596 220.305 927.164 206.874 927.164 190.306Z" fill="#FF83C1"/>
<path fill-rule="evenodd" clip-rule="evenodd" d="M1390.6 25.1728V195.914C1390.6 209.385 1401.52 220.305 1415 220.305H1500.37C1507.1 220.305 1512.56 214.845 1512.56 208.11C1512.56 201.374 1507.1 195.914 1500.37 195.914H1415V98.3476H1488.17C1501.64 98.3476 1512.56 87.4271 1512.56 73.956V25.1728C1512.56 11.7017 1501.64 0.78125 1488.17 0.78125H1415C1401.52 0.78125 1390.6 11.7017 1390.6 25.1728ZM1488.17 25.1728H1415V73.956H1488.17V25.1728Z" fill="#FF83C1"/>
</svg>
