<svg width="307" height="307" viewBox="0 0 307 307" fill="none" xmlns="http://www.w3.org/2000/svg">
<path d="M184.36 144.945L217.977 86.7189C224.165 75.9997 220.493 62.2932 209.774 56.1045C199.054 49.9158 185.348 53.5884 179.159 64.3076L145.542 122.534L87.3159 88.9169C76.5968 82.7282 62.8902 86.4009 56.7015 97.12C50.5128 107.839 54.1854 121.546 64.9046 127.734L123.131 161.351L89.5139 219.578C83.3252 230.297 86.9979 244.003 97.7171 250.192C108.436 256.381 122.143 252.708 128.331 241.989L161.948 183.763L220.175 217.38C230.894 223.568 244.6 219.896 250.789 209.177C256.978 198.457 253.305 184.751 242.586 178.562L184.36 144.945Z" fill="#A4DDD4"/>
</svg>
