<svg width="2517" height="221" viewBox="0 0 2517 221" fill="none" xmlns="http://www.w3.org/2000/svg">
<path fill-rule="evenodd" clip-rule="evenodd" d="M0.0263672 25.2947V196C0.0263672 209.468 10.9446 220.386 24.4128 220.386H97.5722C111.04 220.386 121.959 209.468 121.959 196V122.84C121.959 109.372 111.04 98.454 97.5722 98.454H24.4128V25.2947H109.765C116.5 25.2947 121.959 19.8356 121.959 13.1014C121.959 6.3673 116.5 0.908203 109.765 0.908203H24.4128C10.9446 0.908203 0.0263672 11.8264 0.0263672 25.2947ZM24.4128 196V122.84H97.5722V196H24.4128Z" fill="#FF83C1"/>
<path d="M146.345 92.8404V13.1014C146.345 6.3673 151.804 0.908203 158.538 0.908203C165.272 0.908203 170.731 6.36729 170.731 13.1014V98.454H243.891V13.1014C243.891 6.3673 249.35 0.908203 256.084 0.908203C262.818 0.908203 268.277 6.36729 268.277 13.1014V190.386C268.277 206.955 254.845 220.386 238.277 220.386H158.538C151.804 220.386 146.345 214.927 146.345 208.193C146.345 201.459 151.804 196 158.538 196H243.891V122.84H176.345C159.776 122.84 146.345 109.409 146.345 92.8404Z" fill="#FF83C1"/>
<path fill-rule="evenodd" clip-rule="evenodd" d="M292.664 208.193V196C292.664 182.532 303.582 171.613 317.05 171.613V25.2946C317.05 11.8264 327.968 0.908203 341.436 0.908203H390.209C403.678 0.908203 414.596 11.8264 414.596 25.2947V171.613C428.064 171.613 438.982 182.532 438.982 196V208.193C438.982 214.927 433.523 220.386 426.789 220.386C420.055 220.386 414.596 214.927 414.596 208.193V196H317.05V208.193C317.05 214.927 311.591 220.386 304.857 220.386C298.123 220.386 292.664 214.927 292.664 208.193ZM341.436 171.613V25.2947H390.209V171.613H341.436Z" fill="#FF83C1"/>
<path fill-rule="evenodd" clip-rule="evenodd" d="M463.369 13.1014V196C463.369 209.468 474.287 220.386 487.755 220.386H560.914C574.383 220.386 585.301 209.468 585.301 196V122.84C585.301 109.372 574.383 98.454 560.914 98.454H487.755V13.1014C487.755 6.3673 482.296 0.908203 475.562 0.908203C468.828 0.908203 463.369 6.3673 463.369 13.1014ZM487.755 196V122.84H560.914V196H487.755Z" fill="#FF83C1"/>
<path d="M700.922 208.193V13.1014C700.922 6.3673 706.381 0.908203 713.115 0.908203C719.849 0.908203 725.308 6.36728 725.308 13.1014V49.6811H774.081V13.1014C774.081 6.3673 779.54 0.908203 786.274 0.908203C793.009 0.908203 798.468 6.36729 798.468 13.1014V44.0675C798.468 60.6361 785.036 74.0675 768.468 74.0675H725.308V98.454H792.854C809.423 98.454 822.854 111.885 822.854 128.454V208.193C822.854 214.927 817.395 220.386 810.661 220.386C803.927 220.386 798.468 214.927 798.468 208.193V122.84H725.308V208.193C725.308 214.927 719.849 220.386 713.115 220.386C706.381 220.386 700.922 214.927 700.922 208.193Z" fill="#FF83C1"/>
<path d="M969.173 208.193V13.1014C969.173 6.3673 974.632 0.908203 981.366 0.908203C988.1 0.908203 993.559 6.36728 993.559 13.1014V49.6811H1042.33V13.1014C1042.33 6.3673 1047.79 0.908203 1054.53 0.908203C1061.26 0.908203 1066.72 6.36729 1066.72 13.1014V44.0675C1066.72 60.6361 1053.29 74.0675 1036.72 74.0675H993.559V98.454H1061.11C1077.67 98.454 1091.11 111.885 1091.11 128.454V208.193C1091.11 214.927 1085.65 220.386 1078.91 220.386C1072.18 220.386 1066.72 214.927 1066.72 208.193V122.84H993.559V208.193C993.559 214.927 988.1 220.386 981.366 220.386C974.632 220.386 969.173 214.927 969.173 208.193Z" fill="#FF83C1"/>
<path fill-rule="evenodd" clip-rule="evenodd" d="M859.434 220.386C852.7 220.386 847.241 214.927 847.241 208.193V30.9082C847.241 14.3397 860.672 0.908203 877.241 0.908203H914.787C931.355 0.908203 944.787 14.3397 944.787 30.9082V208.193C944.787 214.927 939.327 220.386 932.593 220.386V220.386C925.859 220.386 920.4 214.927 920.4 208.193V122.84H871.627V208.193C871.627 214.927 866.168 220.386 859.434 220.386V220.386ZM871.627 98.454V25.2947H920.4V98.454H871.627Z" fill="#FF83C1"/>
<path d="M1115.49 190.386V13.1014C1115.49 6.3673 1120.95 0.908203 1127.69 0.908203C1134.42 0.908203 1139.88 6.36728 1139.88 13.1014V196H1188.65V177.227C1188.65 160.658 1202.08 147.227 1218.65 147.227H1237.42V13.1014C1237.42 6.3673 1242.88 0.908203 1249.62 0.908203C1256.35 0.908203 1261.81 6.36729 1261.81 13.1014V208.193C1261.81 214.927 1256.35 220.386 1249.62 220.386C1242.88 220.386 1237.42 214.927 1237.42 208.193V171.613H1213.04V190.386C1213.04 206.955 1199.61 220.386 1183.04 220.386H1145.49C1128.92 220.386 1115.49 206.955 1115.49 190.386Z" fill="#FF83C1"/>
<path d="M1286.2 37.4879V208.193C1286.2 214.927 1291.66 220.386 1298.39 220.386C1305.12 220.386 1310.58 214.927 1310.58 208.193V37.4879C1310.58 30.7537 1316.04 25.2947 1322.78 25.2947C1329.51 25.2947 1334.97 30.7537 1334.97 37.4879V183.807C1334.97 204.009 1351.35 220.386 1371.55 220.386C1391.75 220.386 1408.13 204.009 1408.13 183.807V37.4879C1408.13 30.7537 1413.59 25.2947 1420.32 25.2947C1427.06 25.2947 1432.52 30.7537 1432.52 37.4879V208.193C1432.52 214.927 1437.97 220.386 1444.71 220.386C1451.44 220.386 1456.9 214.927 1456.9 208.193V37.4879C1456.9 17.2855 1440.52 0.908203 1420.32 0.908203C1400.12 0.908203 1383.74 17.2854 1383.74 37.4878V183.807C1383.74 190.541 1378.28 196 1371.55 196C1364.82 196 1359.36 190.541 1359.36 183.807V37.4879C1359.36 17.2855 1342.98 0.908203 1322.78 0.908203C1302.57 0.908203 1286.2 17.2855 1286.2 37.4879Z" fill="#FF83C1"/>
<path fill-rule="evenodd" clip-rule="evenodd" d="M2279.36 13.1014V196C2279.36 209.468 2290.28 220.386 2303.74 220.386H2376.9C2390.37 220.386 2401.29 209.468 2401.29 196V122.84C2401.29 109.372 2390.37 98.454 2376.9 98.454H2303.74V13.1014C2303.74 6.3673 2298.28 0.908203 2291.55 0.908203C2284.82 0.908203 2279.36 6.3673 2279.36 13.1014ZM2303.74 196V122.84H2376.9V196H2303.74Z" fill="#FF83C1"/>
<path d="M1572.52 68.454V13.1014C1572.52 6.3673 1577.98 0.908203 1584.71 0.908203C1591.45 0.908203 1596.91 6.36729 1596.91 13.1014V74.0675H1670.07V13.1014C1670.07 6.3673 1675.53 0.908203 1682.26 0.908203C1688.99 0.908203 1694.45 6.36729 1694.45 13.1014V68.454C1694.45 85.0225 1681.02 98.454 1664.45 98.454H1645.68V122.84H1664.45C1681.02 122.84 1694.45 136.272 1694.45 152.84V208.193C1694.45 214.927 1688.99 220.386 1682.26 220.386C1675.53 220.386 1670.07 214.927 1670.07 208.193V147.227H1596.91V208.193C1596.91 214.927 1591.45 220.386 1584.71 220.386C1577.98 220.386 1572.52 214.927 1572.52 208.193V152.84C1572.52 136.272 1585.95 122.84 1602.52 122.84H1621.29V98.454H1602.52C1585.95 98.454 1572.52 85.0226 1572.52 68.454Z" fill="#FF83C1"/>
<path fill-rule="evenodd" clip-rule="evenodd" d="M1718.84 37.4879V183.807C1718.84 204.009 1735.22 220.386 1755.42 220.386C1775.62 220.386 1792 204.009 1792 183.807V37.4879C1792 17.2855 1775.62 0.908203 1755.42 0.908203C1735.22 0.908203 1718.84 17.2855 1718.84 37.4879ZM1755.42 196C1762.15 196 1767.61 190.541 1767.61 183.807V37.4879C1767.61 30.7537 1762.15 25.2947 1755.42 25.2947V25.2947C1748.69 25.2947 1743.23 30.7537 1743.23 37.4879V183.807C1743.23 190.541 1748.69 196 1755.42 196V196Z" fill="#FF83C1"/>
<path d="M1816.39 68.454V13.1014C1816.39 6.3673 1821.85 0.908203 1828.58 0.908203C1835.31 0.908203 1840.77 6.36729 1840.77 13.1014V74.0675H1889.55V13.1014C1889.55 6.3673 1895 0.908203 1901.74 0.908203C1908.47 0.908203 1913.93 6.36729 1913.93 13.1014V208.193C1913.93 214.927 1908.47 220.386 1901.74 220.386C1895 220.386 1889.55 214.927 1889.55 208.193V98.454H1846.39C1829.82 98.454 1816.39 85.0226 1816.39 68.454Z" fill="#FF83C1"/>
<path fill-rule="evenodd" clip-rule="evenodd" d="M1938.32 25.2947V196C1938.32 209.468 1949.24 220.386 1962.7 220.386H2048.06C2054.79 220.386 2060.25 214.927 2060.25 208.193C2060.25 201.459 2054.79 196 2048.06 196H1962.7V98.454H2035.86C2049.33 98.454 2060.25 87.5358 2060.25 74.0675V25.2947C2060.25 11.8264 2049.33 0.908203 2035.86 0.908203H1962.7C1949.24 0.908203 1938.32 11.8264 1938.32 25.2947ZM2035.86 25.2947H1962.7V74.0675H2035.86V25.2947Z" fill="#FF83C1"/>
<path d="M2084.64 190.386V13.1014C2084.64 6.3673 2090.1 0.908203 2096.83 0.908203C2103.57 0.908203 2109.02 6.36728 2109.02 13.1014V196H2157.8V13.1014C2157.8 6.36728 2163.26 0.908203 2169.99 0.908203C2176.72 0.908203 2182.18 6.3673 2182.18 13.1014V196H2230.96V13.1014C2230.96 6.3673 2236.42 0.908203 2243.15 0.908203C2249.88 0.908203 2255.34 6.36729 2255.34 13.1014V190.386C2255.34 206.955 2241.91 220.386 2225.34 220.386H2114.64C2098.07 220.386 2084.64 206.955 2084.64 190.386Z" fill="#FF83C1"/>
</svg>
