<svg width="2402" height="221" viewBox="0 0 2402 221" fill="none" xmlns="http://www.w3.org/2000/svg">
<path fill-rule="evenodd" clip-rule="evenodd" d="M0.0263672 25.2927V195.998C0.0263672 209.466 10.9446 220.384 24.4128 220.384H97.5722C111.04 220.384 121.959 209.466 121.959 195.998V122.838C121.959 109.37 111.04 98.452 97.5722 98.452H24.4128V25.2927H109.765C116.5 25.2927 121.959 19.8336 121.959 13.0995C121.959 6.36534 116.5 0.90625 109.765 0.90625H24.4128C10.9446 0.90625 0.0263672 11.8244 0.0263672 25.2927ZM24.4128 195.998V122.838H97.5722V195.998H24.4128Z" fill="#FF83C1"/>
<path d="M146.345 92.8385V13.0995C146.345 6.36534 151.804 0.90625 158.538 0.90625C165.272 0.90625 170.731 6.36533 170.731 13.0995V98.452H243.891V13.0995C243.891 6.36534 249.35 0.90625 256.084 0.90625C262.818 0.90625 268.277 6.36533 268.277 13.0995V190.384C268.277 206.953 254.845 220.384 238.277 220.384H158.538C151.804 220.384 146.345 214.925 146.345 208.191C146.345 201.457 151.804 195.998 158.538 195.998H243.891V122.838H176.345C159.776 122.838 146.345 109.407 146.345 92.8385Z" fill="#FF83C1"/>
<path fill-rule="evenodd" clip-rule="evenodd" d="M292.664 208.191V195.998C292.664 182.53 303.582 171.611 317.05 171.611V25.2927C317.05 11.8244 327.968 0.90625 341.436 0.90625H390.209C403.678 0.90625 414.596 11.8244 414.596 25.2927V171.611C428.064 171.611 438.982 182.53 438.982 195.998V208.191C438.982 214.925 433.523 220.384 426.789 220.384C420.055 220.384 414.596 214.925 414.596 208.191V195.998H317.05V208.191C317.05 214.925 311.591 220.384 304.857 220.384C298.123 220.384 292.664 214.925 292.664 208.191ZM341.436 171.611V25.2927H390.209V171.611H341.436Z" fill="#FF83C1"/>
<path fill-rule="evenodd" clip-rule="evenodd" d="M463.369 13.0995V195.998C463.369 209.466 474.287 220.384 487.755 220.384H560.914C574.383 220.384 585.301 209.466 585.301 195.998V122.838C585.301 109.37 574.383 98.452 560.914 98.452H487.755V13.0995C487.755 6.36534 482.296 0.90625 475.562 0.90625C468.828 0.90625 463.369 6.36534 463.369 13.0995ZM487.755 195.998V122.838H560.914V195.998H487.755Z" fill="#FF83C1"/>
<path d="M700.922 208.191V13.0995C700.922 6.36534 706.381 0.90625 713.115 0.90625C719.849 0.90625 725.308 6.36533 725.308 13.0995V49.6791H774.081V13.0995C774.081 6.36534 779.54 0.90625 786.274 0.90625C793.009 0.90625 798.468 6.36533 798.468 13.0995V44.0656C798.468 60.6341 785.036 74.0656 768.468 74.0656H725.308V98.452H792.854C809.423 98.452 822.854 111.884 822.854 128.452V208.191C822.854 214.925 817.395 220.384 810.661 220.384C803.927 220.384 798.468 214.925 798.468 208.191V122.838H725.308V208.191C725.308 214.925 719.849 220.384 713.115 220.384C706.381 220.384 700.922 214.925 700.922 208.191Z" fill="#FF83C1"/>
<path d="M969.173 208.191V13.0995C969.173 6.36534 974.632 0.90625 981.366 0.90625C988.1 0.90625 993.559 6.36533 993.559 13.0995V49.6791H1042.33V13.0995C1042.33 6.36534 1047.79 0.90625 1054.53 0.90625C1061.26 0.90625 1066.72 6.36533 1066.72 13.0995V44.0656C1066.72 60.6341 1053.29 74.0656 1036.72 74.0656H993.559V98.452H1061.11C1077.67 98.452 1091.11 111.884 1091.11 128.452V208.191C1091.11 214.925 1085.65 220.384 1078.91 220.384C1072.18 220.384 1066.72 214.925 1066.72 208.191V122.838H993.559V208.191C993.559 214.925 988.1 220.384 981.366 220.384C974.632 220.384 969.173 214.925 969.173 208.191Z" fill="#FF83C1"/>
<path fill-rule="evenodd" clip-rule="evenodd" d="M859.434 220.384C852.7 220.384 847.241 214.925 847.241 208.191V30.9062C847.241 14.3377 860.672 0.90625 877.241 0.90625H914.787C931.355 0.90625 944.787 14.3377 944.787 30.9063V208.191C944.787 214.925 939.327 220.384 932.593 220.384V220.384C925.859 220.384 920.4 214.925 920.4 208.191V122.838H871.627V208.191C871.627 214.925 866.168 220.384 859.434 220.384V220.384ZM871.627 98.452V25.2927H920.4V98.452H871.627Z" fill="#FF83C1"/>
<path d="M1115.49 190.384V13.0995C1115.49 6.36534 1120.95 0.90625 1127.69 0.90625C1134.42 0.90625 1139.88 6.36533 1139.88 13.0995V195.998H1188.65V177.225C1188.65 160.656 1202.08 147.225 1218.65 147.225H1237.42V13.0995C1237.42 6.36534 1242.88 0.90625 1249.62 0.90625C1256.35 0.90625 1261.81 6.36533 1261.81 13.0995V208.191C1261.81 214.925 1256.35 220.384 1249.62 220.384C1242.88 220.384 1237.42 214.925 1237.42 208.191V171.611H1213.04V190.384C1213.04 206.953 1199.61 220.384 1183.04 220.384H1145.49C1128.92 220.384 1115.49 206.953 1115.49 190.384Z" fill="#FF83C1"/>
<path d="M1286.2 37.4859V208.191C1286.2 214.925 1291.66 220.384 1298.39 220.384C1305.12 220.384 1310.58 214.925 1310.58 208.191V37.4859C1310.58 30.7518 1316.04 25.2927 1322.78 25.2927C1329.51 25.2927 1334.97 30.7518 1334.97 37.4859V183.805C1334.97 204.007 1351.35 220.384 1371.55 220.384C1391.75 220.384 1408.13 204.007 1408.13 183.805V37.4859C1408.13 30.7518 1413.59 25.2927 1420.32 25.2927C1427.06 25.2927 1432.52 30.7518 1432.52 37.4859V208.191C1432.52 214.925 1437.97 220.384 1444.71 220.384C1451.44 220.384 1456.9 214.925 1456.9 208.191V37.4859C1456.9 17.2835 1440.52 0.90625 1420.32 0.90625C1400.12 0.90625 1383.74 17.2835 1383.74 37.4859V183.805C1383.74 190.539 1378.28 195.998 1371.55 195.998C1364.82 195.998 1359.36 190.539 1359.36 183.805V37.4859C1359.36 17.2835 1342.98 0.90625 1322.78 0.90625C1302.57 0.90625 1286.2 17.2835 1286.2 37.4859Z" fill="#FF83C1"/>
<path fill-rule="evenodd" clip-rule="evenodd" d="M2279.36 13.0995V195.998C2279.36 209.466 2290.28 220.384 2303.74 220.384H2376.9C2390.37 220.384 2401.29 209.466 2401.29 195.998V122.838C2401.29 109.37 2390.37 98.452 2376.9 98.452H2303.74V13.0995C2303.74 6.36534 2298.29 0.90625 2291.55 0.90625C2284.82 0.90625 2279.36 6.36534 2279.36 13.0995ZM2303.74 195.998V122.838H2376.9V195.998H2303.74Z" fill="#FF83C1"/>
<path d="M1572.52 68.4521V13.0995C1572.52 6.36534 1577.98 0.90625 1584.72 0.90625C1591.45 0.90625 1596.91 6.36533 1596.91 13.0995V74.0656H1670.07V13.0995C1670.07 6.36535 1675.53 0.90625 1682.26 0.90625C1689 0.90625 1694.46 6.36533 1694.46 13.0995V68.452C1694.46 85.0206 1681.02 98.452 1664.46 98.452H1645.68V122.838H1664.46C1681.02 122.838 1694.46 136.27 1694.46 152.838V208.191C1694.46 214.925 1689 220.384 1682.26 220.384C1675.53 220.384 1670.07 214.925 1670.07 208.191V147.225H1596.91V208.191C1596.91 214.925 1591.45 220.384 1584.72 220.384C1577.98 220.384 1572.52 214.925 1572.52 208.191V152.838C1572.52 136.27 1585.95 122.838 1602.52 122.838H1621.3V98.452H1602.52C1585.95 98.452 1572.52 85.0206 1572.52 68.4521Z" fill="#FF83C1"/>
<path fill-rule="evenodd" clip-rule="evenodd" d="M1718.84 37.4859V183.805C1718.84 204.007 1735.22 220.384 1755.42 220.384C1775.62 220.384 1792 204.007 1792 183.805V37.4859C1792 17.2835 1775.62 0.90625 1755.42 0.90625C1735.22 0.90625 1718.84 17.2835 1718.84 37.4859ZM1755.42 195.998C1762.16 195.998 1767.61 190.539 1767.61 183.805V37.4859C1767.61 30.7518 1762.16 25.2927 1755.42 25.2927V25.2927C1748.69 25.2927 1743.23 30.7518 1743.23 37.4859V183.805C1743.23 190.539 1748.69 195.998 1755.42 195.998V195.998Z" fill="#FF83C1"/>
<path d="M1816.39 68.4521V13.0995C1816.39 6.36534 1821.85 0.90625 1828.58 0.90625C1835.32 0.90625 1840.77 6.36533 1840.77 13.0995V74.0656H1889.55V13.0995C1889.55 6.36535 1895.01 0.90625 1901.74 0.90625C1908.47 0.90625 1913.93 6.36533 1913.93 13.0995V208.191C1913.93 214.925 1908.47 220.384 1901.74 220.384C1895.01 220.384 1889.55 214.925 1889.55 208.191V98.452H1846.39C1829.82 98.452 1816.39 85.0206 1816.39 68.4521Z" fill="#FF83C1"/>
<path fill-rule="evenodd" clip-rule="evenodd" d="M1938.32 25.2927V195.998C1938.32 209.466 1949.24 220.384 1962.71 220.384H2048.06C2054.79 220.384 2060.25 214.925 2060.25 208.191C2060.25 201.457 2054.79 195.998 2048.06 195.998H1962.71V98.452H2035.87C2049.33 98.452 2060.25 87.5339 2060.25 74.0656V25.2927C2060.25 11.8244 2049.33 0.90625 2035.87 0.90625H1962.71C1949.24 0.90625 1938.32 11.8244 1938.32 25.2927ZM2035.87 25.2927H1962.71V74.0656H2035.87V25.2927Z" fill="#FF83C1"/>
<path d="M2084.64 190.384V13.0995C2084.64 6.36535 2090.1 0.90625 2096.83 0.90625C2103.57 0.90625 2109.03 6.36533 2109.03 13.0995V195.998H2157.8V13.0995C2157.8 6.36533 2163.26 0.90625 2169.99 0.90625C2176.73 0.90625 2182.18 6.36534 2182.18 13.0995V195.998H2230.96V13.0995C2230.96 6.36534 2236.42 0.90625 2243.15 0.90625C2249.88 0.90625 2255.34 6.36533 2255.34 13.0995V190.384C2255.34 206.953 2241.91 220.384 2225.34 220.384H2114.64C2098.07 220.384 2084.64 206.953 2084.64 190.384Z" fill="#FF83C1"/>
</svg>
