<svg width="30" height="21" viewBox="0 0 30 21" fill="none" xmlns="http://www.w3.org/2000/svg">
<path fill-rule="evenodd" clip-rule="evenodd" d="M26.5323 0.644504C27.4709 0.0622081 28.7039 0.351066 29.2862 1.28968C29.8685 2.2283 29.5796 3.46125 28.641 4.04354L18.6205 10.26L28.6415 16.4767C29.5801 17.059 29.869 18.292 29.2867 19.2306C28.7044 20.1692 27.4714 20.4581 26.5328 19.8758L14.8267 12.6136L3.12053 19.8758C2.18192 20.4581 0.948971 20.1692 0.366676 19.2306C-0.21562 18.292 0.0732384 17.059 1.01186 16.4767L11.0328 10.26L1.01236 4.04354C0.0737359 3.46125 -0.215122 2.2283 0.367174 1.28968C0.949469 0.351066 2.18241 0.0622081 3.12103 0.644504L14.8267 7.90639L26.5323 0.644504Z" fill="black"/>
</svg>
