<svg width="1440" height="480" viewBox="0 0 1440 480" fill="none" xmlns="http://www.w3.org/2000/svg">
<path d="M210.294 300H0V270H210.294C226.862 270 240.294 283.432 240.294 300V420H420V180C420 163.432 433.431 150 450 150H720.294C736.862 150 750.294 163.432 750.294 180V450H1200V210.76L900.266 210.76C883.697 210.76 870.266 197.328 870.266 180.76V30.7598C870.266 14.1912 883.697 0.759766 900.266 0.759766H1440V30.7598L900.266 30.7598V180.76L1200 180.76C1216.57 180.76 1230 194.191 1230 210.76V450C1230 466.569 1216.57 480 1200 480H750.294C733.725 480 720.294 466.569 720.294 450V180H450V420C450 436.569 436.569 450 420 450H240.294C223.725 450 210.294 436.569 210.294 420V300Z" fill="#FF83C1"/>
<path d="M210.294 300H0V270H210.294C226.862 270 240.294 283.432 240.294 300V420H420V180C420 163.431 433.431 150 450 150H720.294C736.862 150 750.294 163.431 750.294 180V450H975.147V480H750.294C733.725 480 720.294 466.568 720.294 450V180H450V420C450 436.568 436.569 450 420 450H240.294C223.725 450 210.294 436.568 210.294 420V300Z" fill="#A4DDD4"/>
<rect x="89.9375" y="270" width="30" height="30" rx="15" fill="black"/>
<rect x="570" y="150" width="30" height="30" rx="15" fill="black"/>
<rect x="315.516" y="420" width="30" height="30" rx="15" fill="black"/>
<rect x="870" y="90" width="30" height="30" rx="15" fill="black"/>
<rect x="960.147" y="450" width="30" height="30" rx="15" fill="black"/>
</svg>
