<svg width="768" height="664" viewBox="0 0 768 664" fill="none" xmlns="http://www.w3.org/2000/svg">
<path d="M179.583 162H-1.16016V182H179.583V400.51C179.583 411.555 188.537 420.51 199.583 420.51H359.583C370.629 420.51 379.583 411.555 379.583 400.51V20.5098H717.465V180.51H569.313C552.744 180.51 539.313 193.941 539.313 210.51V211.319C539.313 227.887 552.744 241.319 569.313 241.319H660V521.788H340C328.954 521.788 320 530.742 320 541.788V643.058C320 654.104 328.954 663.058 340 663.058H768V643.058H340V541.788H660C671.046 541.788 680 532.834 680 521.788V241.319C680 230.273 671.046 221.319 660 221.319H569.717C563.971 221.319 559.313 216.66 559.313 210.914C559.313 205.168 563.971 200.51 569.717 200.51H717.465C728.511 200.51 737.465 191.555 737.465 180.51V20.5098C737.465 9.46407 728.511 0.509766 717.465 0.509766H379.583C368.537 0.509766 359.583 9.46408 359.583 20.5098V400.51H199.583V182C199.583 170.954 190.629 162 179.583 162Z" fill="#FF83C1"/>
<path d="M179.583 162H-1.16016V182H179.583V400.51C179.583 411.555 188.537 420.51 199.583 420.51H359.583C370.629 420.51 379.583 411.555 379.583 400.51V20.5098H717.465V180.51H569.313C552.744 180.51 539.313 193.941 539.313 210.51V211.319C539.313 227.887 552.744 241.319 569.313 241.319H660V521.788H500V541.788H660C671.046 541.788 680 532.834 680 521.788V241.319C680 230.273 671.046 221.319 660 221.319H569.717C563.971 221.319 559.313 216.66 559.313 210.914C559.313 205.168 563.971 200.51 569.717 200.51H717.465C728.511 200.51 737.465 191.555 737.465 180.51V20.5098C737.465 9.46407 728.511 0.509766 717.465 0.509766H379.583C368.537 0.509766 359.583 9.46408 359.583 20.5098V400.51H199.583V182C199.583 170.954 190.629 162 179.583 162Z" fill="#A4DDD4"/>
<rect x="89.8706" y="162" width="20" height="20" rx="10" fill="black"/>
<rect x="269.881" y="400.504" width="20" height="20" rx="10" fill="black"/>
<rect x="529.5" y="0.509766" width="20" height="20" rx="10" fill="black"/>
<rect x="490.153" y="522" width="20" height="20" rx="10" fill="black"/>
<rect x="529.5" y="643.059" width="20" height="20" rx="10" fill="black"/>
</svg>
