<svg width="320" height="510" viewBox="0 0 320 510" fill="none" xmlns="http://www.w3.org/2000/svg">
<path d="M190.143 70H0V60H190V10C190 4.47715 194.477 0 200 0H289.929C295.451 0 299.929 4.47716 299.929 10V170C299.929 175.523 295.451 180 289.929 180H80V250H240C245.523 250 250 254.477 250 260V370C250 375.523 245.523 380 240 380H30V451.464H119.628C125.15 451.464 129.628 455.942 129.628 461.464V500H320V510H129.628C124.105 510 119.628 505.523 119.628 500V460.403H30.3058C24.783 460.403 20.3058 455.926 20.3058 450.403V380C20.3058 374.477 24.783 370 30.3058 370H240.285V259.897H79.0772C73.5544 259.897 69.0772 255.42 69.0772 249.897V180C69.0772 174.477 73.5544 170 79.0772 170H290.465V10H200.143V60C200.143 65.5229 195.666 70 190.143 70Z" fill="#FF83C1"/>
<path d="M190.143 70H0V60H190V10C190 4.47715 194.477 0 200 0H289.929C295.451 0 299.929 4.47716 299.929 10V170C299.929 175.523 295.451 180 289.929 180H80V250H240C245.523 250 250 254.477 250 260V370C250 375.523 245.523 380 240 380H135.268V370H240.285V259.897H79.0772C73.5544 259.897 69.0772 255.42 69.0772 249.897V180C69.0772 174.477 73.5544 170 79.0772 170H290.465V10H200.143V60C200.143 65.5229 195.666 70 190.143 70Z" fill="#A4DDD4"/>
<circle cx="99.8037" cy="65" r="5" fill="black"/>
<circle cx="185" cy="175" r="5" fill="black"/>
<circle cx="160" cy="255" r="5" fill="black"/>
<circle cx="135" cy="375" r="5" fill="black"/>
<circle cx="219.773" cy="505" r="5" fill="black"/>
</svg>
