<svg width="880" height="659" viewBox="0 0 880 659" fill="none" xmlns="http://www.w3.org/2000/svg">
<rect x="1.5" y="2.20508" width="877" height="654.411" fill="black" stroke="black" stroke-width="3"/>
<mask id="mask0" mask-type="alpha" maskUnits="userSpaceOnUse" x="0" y="0" width="880" height="659">
<rect y="0.705078" width="880" height="657.411" fill="black"/>
</mask>
<g mask="url(#mask0)">
<path d="M338.318 236.403L336.178 214.996L349.557 213.123L352.768 234.53L338.318 236.403Z" fill="#FF83C1" stroke="#FF83C1" stroke-width="3"/>
<path d="M310.429 473.299L189.836 493.218C202.218 500.217 231.72 514.753 250.67 516.906C274.358 519.598 303.43 523.366 315.812 516.906C311.506 514.753 310.429 510.446 305.584 500.217C301.707 492.034 307.199 478.862 310.429 473.299Z" stroke="#FF83C1" stroke-width="3"/>
<path d="M376.908 327.555C343.281 331.591 65.8513 371.831 -68.6602 391.447V468.791C-48.484 455.34 270.98 423.394 350.006 411.624C429.031 399.854 733.362 339.324 772.034 327.555C802.971 318.14 1053.95 231.716 1175.57 189.681V108.975C962.03 188 627.434 283.839 602.214 290.564C576.993 297.29 418.942 322.511 376.908 327.555Z" fill="#A4DDD4" stroke="#A4DDD4" stroke-width="3"/>
<path d="M374.463 435.559C357.595 435.559 73.5383 479.005 -66.3818 500.728V525.773C-53.324 530.96 71.0567 510.852 131.615 500.149C140.034 514.359 149.984 639.017 149.984 661.979C149.984 684.701 161.976 694.138 166.677 697.837L166.823 697.952C171.415 701.569 182.131 694.336 189.019 714.026C195.908 733.715 189.019 755.4 189.019 780.615C189.019 800.786 174.222 834.433 166.823 848.734H182.131C202.031 835.723 205.092 755.4 205.092 727.803C205.092 700.205 193.612 694.336 189.019 689.533C184.427 684.73 162.23 681.879 162.23 678.818V607.636C162.23 601.513 151.005 533.427 145.392 500.149H154.577C156.414 512.742 173.711 522.479 182.131 525.773L239.535 546.405C244.638 549.419 257.751 558.079 269.385 568.601C283.928 581.754 306.124 583.919 331.382 577.02C351.588 571.501 363.273 549.208 366.59 538.751L394.909 525.773C395.93 537.856 398.124 565.022 398.736 577.02C399.502 592.017 405.625 577.02 415.483 657.354C425.341 737.688 444.074 851.786 455.504 857.144C466.933 862.501 544.056 844.732 547.883 838.652C550.944 833.789 543.665 779.958 539.643 753.65L685.104 792.685C685.104 817.943 670.734 791.33 670.734 805.872V831.13H686.523L698.664 844.732V792.685L677.999 638.701C692.796 635.176 729.739 626.902 759.13 622.003C795.869 615.88 782.857 621.238 786.685 645.275C790.511 669.313 782.857 744.466 782.857 762.07C782.857 776.153 752.347 831.13 752.347 831.13H772.362C788.826 810.194 803.523 713.85 803.523 698.542C803.523 683.234 800.185 628.163 798.515 602.541L592.239 645.275L667.024 638.701L685.104 777.588L539.643 740.606L526.125 660.272H510.723C521.892 714.805 542.457 825.249 535.361 830.768C526.492 837.667 467.36 843.58 464.403 838.652C462.038 834.71 423.696 639.437 415.483 583.919L409.57 525.773L692.06 553.312L828.418 430.177L914.159 435.559V399.626H821.057C681.595 431.162 398.532 495.419 381.975 500.149C361.279 506.062 338.612 495.222 337.626 494.236C336.838 493.448 341.41 477.79 343.795 470.06C388.519 464.949 483.332 453.576 504.799 448.976C531.633 443.226 780.806 372.308 821.057 360.807C853.258 351.607 1072.15 285.417 1177.57 253.471V218.971C1091.31 249.638 914.209 312.506 895.809 318.64C872.808 326.307 577.634 397.225 550.8 406.809C523.966 416.392 395.547 435.559 374.463 435.559Z" stroke="#FF83C1" stroke-width="3"/>
<path d="M350.267 540.594C344.668 547.054 289.79 550.105 263.052 550.822C273.999 558.36 299.661 572.249 314.735 567.512C333.578 561.59 344.883 557.821 350.267 540.594Z" stroke="#FF83C1" stroke-width="3"/>
<path d="M155.675 346.187C147.964 346.187 1.689 367.444 -70.4844 378.072V346.187C-65.7151 342.899 40.5493 330.124 93.0853 324.147C97.5941 302.107 125.549 295.742 131.861 295.291C136.911 294.93 167.932 288.528 182.811 285.371C214.973 278.909 280.742 265.984 286.513 265.984C292.284 265.984 328.595 264.18 346.03 263.278L370.377 225.404C382.551 206.467 395.626 183.021 418.17 169.495C440.714 155.969 510.601 148.304 524.128 150.558C537.654 152.812 660.294 140.188 680.583 137.933C700.873 135.679 767.152 100.51 777.974 96.0014C788.795 91.4926 839.293 58.5783 855.074 48.6589C867.699 40.7234 891.896 13.7908 902.417 1.31641H931.273C912.988 20.1031 875.124 58.4881 869.953 61.7345C863.489 65.7924 814.044 96.0014 788.795 111.331C763.545 126.661 695.011 152.812 674.722 156.87C654.432 160.928 603.483 164.084 597.621 164.084C591.76 164.084 509.248 170.848 483.097 172.651C456.946 174.455 424.032 188.432 418.17 191.137C412.309 193.843 393.372 223.15 391.118 228.11C388.863 233.069 360.909 281.764 351.891 280.863C342.873 279.961 240.523 293.036 232.408 293.036C224.292 293.036 139.977 311.973 131.861 312.875C125.368 313.597 120.439 318.586 118.785 320.991C126.751 320.089 144.666 317.655 152.602 315.13C162.521 311.973 238.72 305.21 246.385 303.858C252.517 302.775 299.739 296.193 322.584 293.036L450.183 265.984C419.974 256.966 419.523 227.208 421.777 210.074C424.032 192.941 455.143 183.472 461.174 183.021C467.206 182.571 508.798 182.12 518.717 178.964C528.636 175.807 595.818 173.102 608.893 173.553C621.969 174.004 701.775 160.477 707.636 159.576C713.498 158.674 768.956 129.817 782.031 125.309C795.107 120.8 857.779 75.7118 883.029 73.4574C903.228 71.6538 923.608 85.6311 931.273 92.8452L929.019 116.742C920.602 109.528 900.252 94.6488 886.185 92.8452C868.601 90.5908 840.195 114.037 820.356 125.309C800.518 136.581 738.747 166.339 707.636 178.964C676.525 191.588 630.986 191.588 612.049 192.039C593.112 192.49 503.387 198.351 489.861 199.253C476.334 200.155 450.634 198.802 440.264 216.424C429.893 234.045 454.501 247.567 461.174 248.308C467.848 249.05 571.659 219.39 585.747 216.424C599.836 213.458 736.273 176.382 772.606 163.777C801.673 153.692 853.925 150.183 876.417 149.689C886.057 140.049 996.541 111.13 1005.44 107.422C1012.56 104.456 1124.08 64.1682 1178.95 44.3948C1180.19 54.5287 1181.92 75.6864 1178.95 79.2457C1175.24 83.6947 980.228 148.206 970.588 149.689C960.949 151.172 876.417 184.539 844.532 199.37C819.025 211.234 697.962 245.837 640.619 261.656C536.066 282.913 322.661 326.167 305.458 329.133C283.955 332.841 165.314 346.188 155.675 346.187Z" stroke="#FF83C1" stroke-width="3"/>
<path d="M628.126 508.469L533.329 526.662L538.117 546.771L465.343 558.261L482.578 646.356L749.734 601.351L729.626 508.469L632.913 526.662L628.126 508.469Z" fill="#FF83C1" stroke="#FF83C1" stroke-width="3"/>
<path d="M179.133 672.419L172.011 617.081L338.571 603.932L342.954 658.173L272.823 666.94L265.701 703.101L282.137 707.484L255.291 846.649H195.57C198.127 837.152 203.24 816.296 203.24 808.844C203.24 801.393 217.486 730.861 224.608 696.526L243.237 699.813L250.359 666.94L179.133 672.419Z" fill="#FF83C1" stroke="#FF83C1" stroke-width="3"/>
<path d="M700.531 724.128L692.06 655.979L734.027 652.514L743.268 720.278L700.531 724.128Z" fill="#FF83C1" stroke="#FF83C1" stroke-width="3"/>
<path d="M-32.2765 617.118L-68.6797 622.082V581.218L61.0614 568.682L64.7178 608.207L-11.5464 614.997L-9.80522 625.792L-31.0478 628.404L-32.2765 617.118Z" fill="#FF83C1" stroke="#FF83C1" stroke-width="3"/>
<path d="M-16.6361 689.584L-21.4304 648.568L-63.5107 653.362L-56.0538 732.729L107.474 715.151L100.017 638.98L53.1426 642.709L59.5346 682.659L-16.6361 689.584Z" fill="#FF83C1" stroke="#FF83C1" stroke-width="3"/>
<path d="M681.127 23.2733V93.2957L424.938 85.3619V107.171L444.609 109.309L442.043 138.387L359.512 156.775L199.153 141.38L189.746 62.6979L249.185 56.7112L246.192 32.3367L180.854 37.2776L174.63 1.48828H430.601L681.127 23.2733Z" fill="#FF83C1" stroke="#FF83C1" stroke-width="3"/>
<path d="M215.802 268.214L209.852 231.139L323.366 214.203L328.858 249.905L215.802 268.214Z" fill="#FF83C1" stroke="#FF83C1" stroke-width="3"/>
<path d="M129.488 156.213L132.792 172.26L47.3678 184.531L37.4568 129.784L-2.18742 136.864L-10.2106 110.906L-40.4157 114.682L-30.5047 166.597H-47.967L-54.5744 114.682H-70.6211V227.479L203.112 190.194L194.617 147.246L129.488 156.213Z" fill="#FF83C1" stroke="#FF83C1" stroke-width="3"/>
<path d="M62.1013 130.059L39.5781 1.95508H112.78L121.695 44.1871L101.987 47.941L108.557 91.5807L151.258 85.4805L159.704 130.059L117.472 136.159L112.78 121.143L62.1013 130.059Z" fill="#FF83C1" stroke="#FF83C1" stroke-width="3"/>
<path d="M620.793 547.035C618.868 550.368 614.057 550.368 612.132 547.035L586.027 501.82C572.5 478.391 589.409 449.104 616.463 449.104V449.104C643.516 449.104 660.425 478.391 646.898 501.82L620.793 547.035Z" fill="#A4DDD4"/>
<circle cx="616.463" cy="485.214" r="18.3742" fill="black"/>
</g>
</svg>
