<svg width="711" height="582" viewBox="0 0 711 582" fill="none" xmlns="http://www.w3.org/2000/svg">
<rect x="2.12207" y="2.5" width="707" height="577.851" fill="black" stroke="black" stroke-width="3"/>
<mask id="mask0" mask-type="alpha" maskUnits="userSpaceOnUse" x="0" y="0" width="711" height="582">
<rect x="0.62207" y="0.998047" width="710" height="580.853" fill="black"/>
</mask>
<g mask="url(#mask0)">
<path d="M273.583 92.0268L271.855 74.7552L282.65 73.2441L285.241 90.5156L273.583 92.0268Z" fill="#FF83C1" stroke="#FF83C1" stroke-width="3"/>
<path d="M285.108 463.004L288.375 444L303.518 446.673L299.658 465.676L285.108 463.004Z" fill="#FF83C1" stroke="#FF83C1" stroke-width="3"/>
<path d="M251.082 283.158L153.785 299.229C163.775 304.876 187.578 316.604 202.868 318.341C221.979 320.513 245.435 323.554 255.425 318.341C251.95 316.604 251.082 313.129 247.172 304.876C244.045 298.274 248.476 287.647 251.082 283.158Z" stroke="#FF83C1" stroke-width="3"/>
<path d="M304.718 165.569C277.587 168.825 53.7519 201.292 -54.7744 217.119V279.521C-38.4959 268.669 219.254 242.894 283.013 233.398C346.772 223.902 592.311 175.065 623.513 165.569C648.474 157.973 850.965 88.2447 949.09 54.3302V-10.7852C776.805 52.9738 506.847 130.298 486.499 135.725C466.15 141.151 338.632 161.5 304.718 165.569Z" fill="#A4DDD4" stroke="#A4DDD4" stroke-width="3"/>
<path d="M302.746 252.711C289.137 252.711 59.9546 287.763 -52.9355 305.29V325.496C-42.4002 329.682 57.9524 313.458 106.812 304.823C113.605 316.288 121.633 416.864 121.633 435.39C121.633 453.723 131.308 461.337 135.1 464.321L135.218 464.414C138.923 467.332 147.569 461.496 153.127 477.382C158.684 493.268 153.127 510.764 153.127 531.107C153.127 547.382 141.188 574.529 135.218 586.068H147.569C163.625 575.57 166.095 510.764 166.095 488.498C166.095 466.232 156.832 461.496 153.127 457.621C149.421 453.746 131.513 451.446 131.513 448.976V391.545C131.513 386.605 122.456 331.672 117.927 304.823H125.338C126.82 314.983 140.776 322.839 147.569 325.496L193.884 342.143C198.001 344.575 208.581 351.562 217.967 360.051C229.701 370.663 247.609 372.41 267.987 366.844C284.29 362.391 293.718 344.404 296.394 335.967L319.243 325.496C320.066 335.245 321.836 357.164 322.33 366.844C322.948 378.944 327.888 366.844 335.842 431.658C343.795 496.473 358.91 588.53 368.131 592.852C377.353 597.175 439.576 582.838 442.664 577.933C445.134 574.009 439.261 530.577 436.016 509.352L553.377 540.846C553.377 561.225 541.783 539.753 541.783 551.486V571.864H554.522L564.318 582.838V540.846L547.644 416.609C559.583 413.765 589.389 407.089 613.103 403.137C642.744 398.197 632.246 402.519 635.334 421.913C638.422 441.307 632.246 501.942 632.246 516.145C632.246 527.508 607.63 571.864 607.63 571.864H623.779C637.061 554.973 648.919 477.241 648.919 464.89C648.919 452.539 646.226 408.107 644.879 387.434L478.452 421.913L538.79 416.609L553.377 528.665L436.016 498.828L425.11 434.013H412.683C421.695 478.011 438.287 567.119 432.562 571.572C425.405 577.138 377.697 581.909 375.312 577.933C373.403 574.753 342.468 417.202 335.842 372.41L331.071 325.496L558.989 347.716L669.005 248.368L738.182 252.711V223.719H663.066C550.546 249.163 322.165 301.006 308.807 304.823C292.109 309.594 273.821 300.847 273.026 300.052C272.389 299.416 276.079 286.783 278.003 280.546C314.086 276.422 390.584 267.247 407.904 263.535C429.554 258.896 630.591 201.678 663.066 192.399C689.047 184.976 865.65 131.573 950.704 105.799V77.9629C881.114 102.706 738.223 153.429 723.377 158.378C704.82 164.564 466.668 221.782 445.018 229.514C423.368 237.246 319.757 252.711 302.746 252.711Z" stroke="#FF83C1" stroke-width="3"/>
<path d="M283.224 337.453C278.707 342.665 234.431 345.127 212.857 345.706C221.689 351.787 242.394 362.994 254.556 359.171C269.759 354.393 278.88 351.353 283.224 337.453Z" stroke="#FF83C1" stroke-width="3"/>
<path d="M126.223 180.602C120.002 180.602 1.98469 197.752 -56.2461 206.327V180.602C-52.3981 177.948 33.3379 167.641 75.7249 162.819C79.3626 145.037 101.917 139.901 107.01 139.537C111.084 139.246 136.112 134.081 148.117 131.534C174.066 126.32 227.13 115.892 231.786 115.892C236.442 115.892 265.739 114.437 279.805 113.709L299.449 83.1517C309.271 67.873 319.821 48.9564 338.009 38.0431C356.198 27.1297 412.584 20.9455 423.498 22.7644C434.411 24.5832 533.359 14.3974 549.729 12.5786C566.099 10.7597 619.574 -17.6151 628.305 -21.2529C637.036 -24.8907 677.779 -51.4465 690.511 -59.4497C700.697 -65.8522 720.22 -87.5819 728.708 -97.6465H751.99C737.237 -82.489 706.688 -51.5193 702.516 -48.9001C697.301 -45.6261 657.407 -21.2529 637.036 -8.88442C616.664 3.48406 561.37 24.5832 545 27.8573C528.63 31.1313 487.523 33.6777 482.794 33.6777C478.064 33.6777 411.493 39.1344 390.394 40.5895C369.294 42.0446 342.739 53.3218 338.009 55.5044C333.28 57.6871 318.002 81.3327 316.183 85.3343C314.364 89.3359 291.81 128.624 284.534 127.896C277.258 127.169 194.681 137.719 188.133 137.719C181.585 137.719 113.558 152.997 107.01 153.725C101.771 154.307 97.7941 158.333 96.4603 160.273C102.887 159.545 117.341 157.581 123.744 155.544C131.747 152.997 193.225 147.541 199.41 146.449C204.357 145.576 242.457 140.265 260.888 137.719L363.838 115.892C339.465 108.616 339.101 84.6068 340.92 70.7832C342.739 56.9596 367.839 49.3202 372.706 48.9564C377.572 48.5927 411.129 48.2289 419.132 45.6824C427.135 43.136 481.338 40.9533 491.888 41.3171C502.438 41.6808 566.826 30.7675 571.556 30.0399C576.285 29.3124 621.03 6.03051 631.579 2.39272C642.129 -1.24506 692.694 -37.623 713.066 -39.4419C729.363 -40.897 745.806 -29.6198 751.99 -23.7994L750.171 -4.51907C743.381 -10.3395 726.962 -22.3442 715.612 -23.7994C701.425 -25.6183 678.507 -6.70175 662.5 2.39272C646.494 11.4872 596.656 35.4966 571.556 45.6824C546.455 55.8682 509.713 55.8682 494.435 56.232C479.156 56.5958 406.764 61.3249 395.85 62.0525C384.937 62.78 364.202 61.6887 355.835 75.9059C347.468 90.1232 367.321 101.033 372.706 101.631C378.09 102.229 461.846 78.299 473.213 75.9059C484.58 73.5129 594.66 43.5999 623.975 33.4295C647.427 25.2932 689.584 22.4616 707.731 22.0628C715.509 14.2857 804.649 -9.04691 811.828 -12.0382C817.572 -14.4312 907.55 -46.9365 951.821 -62.8901C952.818 -54.7138 954.214 -37.6434 951.821 -34.7717C948.83 -31.1822 791.488 20.8663 783.71 22.0628C775.933 23.2593 707.731 50.1812 682.006 62.1464C661.426 71.7186 563.75 99.6374 517.485 112.4C433.13 129.55 260.951 164.449 247.071 166.842C229.722 169.833 134 180.602 126.223 180.602Z" stroke="#FF83C1" stroke-width="3"/>
<path d="M507.405 311.535L430.92 326.214L434.784 342.438L376.068 351.709L389.974 422.785L605.521 386.474L589.297 311.535L511.267 326.214L507.405 311.535Z" fill="#FF83C1" stroke="#FF83C1" stroke-width="3"/>
<path d="M145.15 443.811L139.403 399.164L273.787 388.555L277.323 432.318L220.741 439.391L214.994 468.566L228.256 472.102L206.595 584.384H158.411C160.474 576.721 164.6 559.894 164.6 553.882C164.6 547.87 176.093 490.963 181.84 463.261L196.87 465.914L202.617 439.391L145.15 443.811Z" fill="#FF83C1" stroke="#FF83C1" stroke-width="3"/>
<path d="M565.823 485.532L558.988 430.548L592.849 427.752L600.304 482.425L565.823 485.532Z" fill="#FF83C1" stroke="#FF83C1" stroke-width="3"/>
<path d="M-25.4193 399.193L-54.79 403.198V370.228L49.8874 360.113L52.8375 392.003L-8.69388 397.481L-7.28905 406.191L-24.4279 408.299L-25.4193 399.193Z" fill="#FF83C1" stroke="#FF83C1" stroke-width="3"/>
<path d="M116.614 529.46L122.252 492.318L148.546 496.621L142.377 532.181L116.614 529.46Z" fill="#FF83C1" stroke="#FF83C1" stroke-width="3"/>
<path d="M-12.8008 457.66L-16.6689 424.568L-50.6201 428.436L-44.6037 492.47L87.3338 478.288L81.3171 416.832L43.4979 419.84L48.6551 452.073L-12.8008 457.66Z" fill="#FF83C1" stroke="#FF83C1" stroke-width="3"/>
<path d="M550.168 -79.9293V-23.434L343.47 -29.8351V-12.2394L359.34 -10.5143L357.27 12.9466L290.683 27.7822L161.302 15.3617L153.712 -48.1208L201.669 -52.951L199.254 -72.6168L146.539 -68.6304L141.517 -97.5059H348.039L550.168 -79.9293Z" fill="#FF83C1" stroke="#FF83C1" stroke-width="3"/>
<path d="M174.736 117.692L169.935 87.7791L261.52 74.1152L265.951 102.92L174.736 117.692Z" fill="#FF83C1" stroke="#FF83C1" stroke-width="3"/>
<path d="M105.095 27.328L107.761 40.2749L38.8391 50.1752L30.8427 6.00455L-1.14291 11.7163L-7.6162 -9.22656L-31.9862 -6.1805L-23.9898 35.7056H-38.0787L-43.4096 -6.1805H-56.3564V84.8262L164.497 54.7445L157.643 20.0933L105.095 27.328Z" fill="#FF83C1" stroke="#FF83C1" stroke-width="3"/>
<path d="M50.7268 6.22738L32.5547 -97.1289H91.6151L98.8084 -63.0554L82.9075 -60.0266L88.2078 -24.8173L122.66 -29.7391L129.475 6.22738L95.4011 11.1491L91.6151 -0.965874L50.7268 6.22738Z" fill="#FF83C1" stroke="#FF83C1" stroke-width="3"/>
<path d="M501.773 342.156C500.094 345.064 495.896 345.064 494.217 342.156L473.439 306.167C462.526 287.264 476.168 263.636 497.995 263.636C519.822 263.636 533.464 287.265 522.551 306.168L501.773 342.156Z" fill="#A4DDD4"/>
<circle cx="497.995" cy="292.772" r="14.8246" fill="black"/>
</g>
<rect x="2.12207" y="2.49805" width="707" height="577.851" stroke="black" stroke-width="3"/>
</svg>
