<svg width="42" height="42" viewBox="0 0 42 42" fill="none" xmlns="http://www.w3.org/2000/svg">
<path d="M41.0963 21.4071C41.0963 32.7068 31.9361 41.867 20.6365 41.867C9.33682 41.867 0.176636 32.7068 0.176636 21.4071C0.176636 10.1075 9.33682 0.947266 20.6365 0.947266C31.9361 0.947266 41.0963 10.1075 41.0963 21.4071Z" fill="#FF83C1"/>
<path fill-rule="evenodd" clip-rule="evenodd" d="M24.6366 12.9941C24.6366 10.785 22.8457 8.99414 20.6366 8.99414C18.4275 8.99414 16.6366 10.785 16.6366 12.9941V17.4043H12.225C10.0158 17.4043 8.22498 19.1952 8.22498 21.4043C8.22498 23.6134 10.0158 25.4043 12.225 25.4043H16.6366V29.8174C16.6366 32.0265 18.4275 33.8174 20.6366 33.8174C22.8457 33.8174 24.6366 32.0265 24.6366 29.8174V25.4043H29.0482C31.2574 25.4043 33.0482 23.6134 33.0482 21.4043C33.0482 19.1952 31.2574 17.4043 29.0482 17.4043H24.6366V12.9941Z" fill="black"/>
</svg>
