<svg width="427" height="90" viewBox="0 0 427 90" fill="none" xmlns="http://www.w3.org/2000/svg">
<path d="M148.953 14.8954V84.407C148.953 87.1491 151.176 89.3721 153.918 89.3721C156.66 89.3721 158.883 87.1491 158.883 84.407V14.8953C158.883 12.1532 161.106 9.93023 163.848 9.93023C166.591 9.93023 168.814 12.1532 168.814 14.8953V74.4767C168.814 82.7032 175.482 89.3721 183.709 89.3721C191.935 89.3721 198.604 82.7032 198.604 74.4767V14.8953C198.604 12.1532 200.827 9.93023 203.569 9.93023C206.312 9.93023 208.535 12.1532 208.535 14.8953V84.407C208.535 87.1491 210.757 89.3721 213.5 89.3721C216.242 89.3721 218.465 87.1491 218.465 84.407V14.8954C218.465 6.66888 211.796 0 203.569 0C195.343 0 188.674 6.66887 188.674 14.8953V74.4767C188.674 77.2189 186.451 79.4418 183.709 79.4418C180.967 79.4418 178.744 77.2189 178.744 74.4767V14.8954C178.744 6.66888 172.075 0 163.848 0C155.622 0 148.953 6.66888 148.953 14.8954Z" fill="#FF83C1"/>
<path fill-rule="evenodd" clip-rule="evenodd" d="M49.6509 9.93023V84.407C49.6509 87.1491 51.8738 89.3721 54.616 89.3721C57.3582 89.3721 59.5811 87.1491 59.5811 84.407V49.6512H89.3718C94.8561 49.6512 99.302 45.2052 99.302 39.7209V9.93023C99.302 4.44592 94.8561 0 89.3718 0H59.5811C54.0968 0 49.6509 4.44592 49.6509 9.93023ZM59.5811 39.7209V9.93023H89.3718V39.7209H59.5811Z" fill="#FF83C1"/>
<path fill-rule="evenodd" clip-rule="evenodd" d="M109.233 14.8953V74.4767C109.233 82.7032 115.902 89.3721 124.128 89.3721C132.355 89.3721 139.024 82.7032 139.024 74.4767V14.8953C139.024 6.66888 132.355 0 124.128 0C115.902 0 109.233 6.66887 109.233 14.8953ZM124.128 79.4419C126.87 79.4419 129.093 77.2189 129.093 74.4767V14.8953C129.093 12.1532 126.87 9.93023 124.128 9.93023V9.93023C121.386 9.93023 119.163 12.1532 119.163 14.8953V74.4767C119.163 77.2189 121.386 79.4419 124.128 79.4419V79.4419Z" fill="#FF83C1"/>
<path fill-rule="evenodd" clip-rule="evenodd" d="M228.395 14.8953V74.4767C228.395 82.7032 235.064 89.3721 243.29 89.3721C251.517 89.3721 258.186 82.7032 258.186 74.4767V14.8953C258.186 6.66888 251.517 0 243.29 0C235.064 0 228.395 6.66887 228.395 14.8953ZM243.29 79.4419C246.033 79.4419 248.255 77.2189 248.255 74.4767V14.8953C248.255 12.1532 246.033 9.93023 243.29 9.93023V9.93023C240.548 9.93023 238.325 12.1532 238.325 14.8953V74.4767C238.325 77.2189 240.548 79.4419 243.29 79.4419V79.4419Z" fill="#FF83C1"/>
<path fill-rule="evenodd" clip-rule="evenodd" d="M327.698 14.8953V74.4767C327.698 82.7032 334.367 89.3721 342.593 89.3721C350.82 89.3721 357.488 82.7032 357.488 74.4767V14.8953C357.488 6.66888 350.82 0 342.593 0C334.367 0 327.698 6.66887 327.698 14.8953ZM342.593 79.4419C345.335 79.4419 347.558 77.2189 347.558 74.4767V14.8953C347.558 12.1532 345.335 9.93023 342.593 9.93023V9.93023C339.851 9.93023 337.628 12.1532 337.628 14.8953V74.4767C337.628 77.2189 339.851 79.4419 342.593 79.4419V79.4419Z" fill="#FF83C1"/>
<path d="M29.7907 84.407V9.93023H9.93023V84.407C9.93023 87.1491 7.70727 89.3721 4.96512 89.3721C2.22296 89.3721 0 87.1491 0 84.407V9.93023C0 4.44591 4.44592 0 9.93023 0H29.7907C35.275 0 39.7209 4.44592 39.7209 9.93023V10.643V84.407C39.7209 87.1491 37.498 89.3721 34.7558 89.3721C32.0137 89.3721 29.7907 87.1491 29.7907 84.407Z" fill="#FF83C1"/>
<path d="M268.116 84.407V4.96512C268.116 2.22296 270.339 0 273.081 0C275.823 0 278.046 2.22296 278.046 4.96511V19.8605H297.907V4.96512C297.907 2.22296 300.13 0 302.872 0C305.614 0 307.837 2.22296 307.837 4.96511V19.8605C307.837 25.3448 303.391 29.7907 297.907 29.7907H278.046V39.7209H307.837C313.321 39.7209 317.767 44.1668 317.767 49.6512V84.407C317.767 87.1491 315.544 89.3721 312.802 89.3721C310.06 89.3721 307.837 87.1491 307.837 84.407V49.6512H278.046V84.407C278.046 87.1491 275.823 89.3721 273.081 89.3721C270.339 89.3721 268.116 87.1491 268.116 84.407Z" fill="#FF83C1"/>
<path fill-rule="evenodd" clip-rule="evenodd" d="M367.419 84.407V79.4419C367.419 73.9575 371.865 69.5116 377.349 69.5116V9.93023C377.349 4.44592 381.795 0 387.279 0H407.14C412.624 0 417.07 4.44592 417.07 9.93023V69.5116C422.554 69.5116 427 73.9575 427 79.4419V84.407C427 87.1491 424.777 89.3721 422.035 89.3721C419.293 89.3721 417.07 87.1491 417.07 84.407V79.4419H377.349V84.407C377.349 87.1491 375.126 89.3721 372.384 89.3721C369.642 89.3721 367.419 87.1491 367.419 84.407ZM387.279 69.5116V9.93023H407.14V69.5116H387.279Z" fill="#FF83C1"/>
</svg>
