<svg width="579" height="701" viewBox="0 0 579 701" fill="none" xmlns="http://www.w3.org/2000/svg">
<path d="M558.774 100.253V310.253C558.774 315.776 563.251 320.253 568.774 320.253C574.297 320.253 578.774 315.776 578.774 310.253V100.253C578.774 89.2077 569.819 80.2534 558.774 80.2534H478.773C467.728 80.2534 458.773 89.2077 458.773 100.253V220.253H418.563V20.8008C418.563 9.75509 409.609 0.800781 398.563 0.800781H98.7737C87.728 0.800781 78.7737 9.75507 78.7737 20.8008V140.253C78.7737 151.299 87.728 160.253 98.7737 160.253H288.457C293.98 160.253 298.457 164.73 298.457 170.253C298.457 175.776 293.98 180.253 288.457 180.253H20.0834C9.0377 180.253 0.0833986 189.208 0.0833986 200.253V320.253C0.0833986 331.299 9.0377 340.253 20.0834 340.253H238.964V400.315C238.964 411.361 247.919 420.315 258.964 420.315H498.549V680.253H418.549V540.253C418.549 529.208 409.594 520.253 398.549 520.253H78.7737C67.728 520.253 58.7737 529.208 58.7737 540.253V640.253C58.7737 651.299 67.728 660.253 78.7737 660.253H288.773C294.296 660.253 298.773 655.776 298.773 650.253C298.773 644.73 294.296 640.253 288.773 640.253H78.7737V540.253H398.549V680.253C398.549 691.299 407.503 700.253 418.549 700.253H498.549C509.595 700.253 518.549 691.299 518.549 680.253V420.315C518.549 409.27 509.595 400.315 498.549 400.315H258.964V340.253C258.964 329.208 250.01 320.253 238.964 320.253H20.0834V200.253H288.457C305.025 200.253 318.457 186.822 318.457 170.253C318.457 153.685 305.025 140.253 288.457 140.253H98.7737V20.8008H398.563V220.253C398.563 231.299 407.518 240.253 418.563 240.253H458.773C469.819 240.253 478.773 231.299 478.773 220.253V100.253H558.774Z" fill="#A4DDD4"/>
</svg>
