<svg width="291" height="511" viewBox="0 0 291 511" fill="none" xmlns="http://www.w3.org/2000/svg">
<path d="M51.2919 0.273438H261.001C266.523 0.273438 271.001 4.75058 271.001 10.2734V50.2528H281.001C286.523 50.2528 291.001 54.7299 291.001 60.2528V95.2528C291.001 98.0142 288.762 100.253 286.001 100.253C283.239 100.253 281.001 98.0142 281.001 95.2528V60.2528H271.001C265.478 60.2528 261.001 55.7756 261.001 50.2528V10.2734H51.2919V80.253H240.992C246.515 80.253 250.992 84.7301 250.992 90.253V110.253C250.992 115.776 246.515 120.253 240.992 120.253H101.001V180.317L266.001 180.316C274.285 180.316 281.001 187.032 281.001 195.316C281.001 203.6 274.285 210.316 266.001 210.316H10.812V270.253H281.001C286.523 270.253 291.001 274.73 291.001 280.253V390.253C291.001 395.776 286.523 400.253 281.001 400.253H250.992C245.469 400.253 240.992 395.776 240.992 390.253V350.371H40.9284V430.253H220.928C226.451 430.253 230.928 434.73 230.928 440.253V481.075C230.928 486.598 226.451 491.075 220.928 491.075H65.7813C63.1011 491.075 60.9283 493.248 60.9283 495.928C60.9283 498.608 63.1011 500.781 65.7813 500.781H126.031C128.793 500.781 131.031 503.019 131.031 505.781C131.031 508.542 128.793 510.781 126.031 510.781H65.7813C57.5782 510.781 50.9283 504.131 50.9283 495.928C50.9283 487.725 57.5782 481.075 65.7813 481.075H220.928V440.253H40.9284C35.4055 440.253 30.9284 435.776 30.9284 430.253V350.371C30.9284 344.848 35.4055 340.371 40.9284 340.371H240.992C246.515 340.371 250.992 344.848 250.992 350.371V390.253H281.001V280.253H10.812C5.28917 280.253 0.812012 275.776 0.812012 270.253V210.316C0.812012 204.793 5.28917 200.316 10.812 200.316H266.001C268.762 200.316 271.001 198.078 271.001 195.316C271.001 192.555 268.762 190.316 266.001 190.316L101.001 190.317C95.4777 190.317 91.0005 185.84 91.0005 180.317V120.253C91.0005 114.73 95.4777 110.253 101.001 110.253H240.992V90.253H51.2919C45.769 90.253 41.2919 85.7758 41.2919 80.253V10.2734C41.2919 4.75059 45.769 0.273438 51.2919 0.273438Z" fill="#A4DDD4"/>
</svg>
