<svg width="320" height="881" viewBox="0 0 320 881" fill="none" xmlns="http://www.w3.org/2000/svg">
<path d="M320 120.254V230.254C320 235.777 315.523 240.254 310 240.254C304.477 240.254 300 235.777 300 230.254V120.254H260C248.954 120.254 240 111.3 240 100.254V20.2539H59.9998V142.78H200.688C211.734 142.78 220.688 151.734 220.688 162.78V200.808C220.688 211.854 211.734 220.808 200.688 220.808H19.9998V300.254H270C286.568 300.254 300 313.685 300 330.254C300 346.822 286.568 360.254 270 360.254H59.9998V460.254H240C251.045 460.254 260 469.208 260 480.254V560.254H300C311.045 560.254 320 569.208 320 580.254V741.469C320 752.515 311.045 761.469 300 761.469H220C208.954 761.469 200 752.515 200 741.469V640.254H39.9998V782.089H140C151.045 782.089 160 791.043 160 802.089V860.887H310C315.523 860.887 320 865.364 320 870.887C320 876.41 315.523 880.887 310 880.887H160C148.954 880.887 140 871.933 140 860.887V802.089H39.9998C28.9541 802.089 19.9998 793.134 19.9998 782.089V640.254C19.9998 629.208 28.9541 620.254 39.9998 620.254H200C211.045 620.254 220 629.208 220 640.254V741.469H300V580.254H260C248.954 580.254 240 571.3 240 560.254V480.254H59.9998C48.9541 480.254 39.9998 471.3 39.9998 460.254V360.254C39.9998 349.208 48.9541 340.254 59.9998 340.254H270C275.523 340.254 280 335.777 280 330.254C280 324.731 275.523 320.254 270 320.254H19.9998C8.95406 320.254 -0.000244141 311.3 -0.000244141 300.254V220.808C-0.000244141 209.762 8.95407 200.808 19.9998 200.808H199.688V162.78H59.9998C48.9541 162.78 39.9998 153.826 39.9998 142.78V20.2539C39.9998 9.20821 48.9541 0.253906 59.9997 0.253906H240C251.045 0.253906 260 9.20821 260 20.2539V100.254H300C311.045 100.254 320 109.208 320 120.254Z" fill="#A4DDD4"/>
</svg>
